<svg width="22" height="24" viewBox="0 0 22 24" fill="none" xmlns="http://www.w3.org/2000/svg">
<g clip-path="url(#clip0_152_999)">
<path d="M18.2066 1.5H3.79344C1.97234 1.5 0.5 2.97234 0.5 4.79344V19.2066C0.5 21.0277 1.97234 22.5 3.79344 22.5H18.2066C20.0122 22.5 21.4766 21.0431 21.5 19.2375C19.3456 18.0366 16.3161 16.4091 13.4562 15.0919C11.953 17.153 9.51219 18.8887 6.48969 18.8887C3.18078 18.8887 2.09609 16.7653 1.94094 15.3089C1.75484 13.4803 2.63844 11.4886 6.60594 11.4886C8.26437 11.4886 10.3255 11.9691 12.5652 12.6586C13.34 11.2481 13.805 9.83016 13.805 9.83016H5.45187V9.04734H9.76813V7.58297H4.63812V6.69187H9.76813V4.32844H12.155V6.69187H17.285V7.58297H12.1545V9.04734H16.3156C16.3156 9.04734 15.6027 11.2327 14.518 13.3092C16.8116 14.092 19.2059 14.9986 21.4845 15.7814V4.79344C21.492 2.97984 20.0202 1.5 18.2066 1.5ZM2.71625 15.1383C2.76266 16.0838 3.19672 17.6569 5.99422 17.6569C8.435 17.6569 10.3339 15.7969 11.5194 14.2397C9.42734 13.3641 7.55937 12.7673 6.38937 12.7673C3.22766 12.7673 2.66984 14.317 2.71625 15.1383Z" fill="#60A5FA"/>
</g>
<defs>
<clipPath id="clip0_152_999">
<path d="M0.5 0H21.5V24H0.5V0Z" fill="white"/>
</clipPath>
</defs>
</svg>
