<svg width="28" height="24" viewBox="0 0 28 24" fill="none" xmlns="http://www.w3.org/2000/svg">
<g clip-path="url(#clip0_152_990)">
<path d="M22.5359 10.8422C22.5359 10.8422 22.8922 12.5859 22.9719 12.9516H21.4062C21.5609 12.5344 22.1562 10.9125 22.1562 10.9125C22.1469 10.9266 22.3109 10.4859 22.4047 10.2141L22.5359 10.8422ZM27.5 3.75V20.25C27.5 21.4922 26.4922 22.5 25.25 22.5H2.75C1.50781 22.5 0.5 21.4922 0.5 20.25V3.75C0.5 2.50781 1.50781 1.5 2.75 1.5H25.25C26.4922 1.5 27.5 2.50781 27.5 3.75ZM7.64844 15.525L10.6109 8.25H8.61875L6.77656 13.2188L6.575 12.2109L5.91875 8.86406C5.81094 8.4 5.47813 8.26875 5.06563 8.25H2.03281L2 8.39531C2.74063 8.58281 3.40156 8.85469 3.97812 9.19687L5.65625 15.525H7.64844ZM12.0734 15.5344L13.2547 8.25H11.3703L10.1938 15.5344H12.0734ZM18.6312 13.1531C18.6406 12.3234 18.1344 11.6906 17.0516 11.1703C16.3906 10.8375 15.9875 10.6125 15.9875 10.2703C15.9969 9.96094 16.3297 9.64219 17.0703 9.64219C17.6844 9.62812 18.1344 9.77344 18.4719 9.91875L18.6406 9.99844L18.8984 8.42344C18.5281 8.27812 17.9375 8.11406 17.2109 8.11406C15.35 8.11406 14.0422 9.10781 14.0328 10.5234C14.0188 11.5687 14.9703 12.15 15.6828 12.5016C16.4094 12.8578 16.6578 13.0922 16.6578 13.4062C16.6484 13.8937 16.0672 14.1188 15.5281 14.1188C14.7781 14.1188 14.375 14.0016 13.7609 13.7297L13.5125 13.6125L13.25 15.2484C13.6906 15.45 14.5062 15.6281 15.35 15.6375C17.3281 15.6422 18.6172 14.6625 18.6312 13.1531ZM25.25 15.5344L23.7313 8.25H22.2734C21.8234 8.25 21.4812 8.38125 21.2891 8.85469L18.4906 15.5344H20.4688C20.4688 15.5344 20.7922 14.6344 20.8625 14.4422H23.2812C23.3375 14.7 23.5062 15.5344 23.5062 15.5344H25.25Z" fill="#A78BFA"/>
</g>
<defs>
<clipPath id="clip0_152_990">
<path d="M0.5 0H27.5V24H0.5V0Z" fill="white"/>
</clipPath>
</defs>
</svg>
