<svg width="30" height="24" viewBox="0 0 30 24" fill="none" xmlns="http://www.w3.org/2000/svg">
<g clip-path="url(#clip0_152_984)">
<path d="M25.0781 1.92168C24.6375 1.48106 24.6375 0.768557 25.0781 0.33262C25.5187 -0.103318 26.2313 -0.108005 26.6672 0.33262L29.6672 3.33262C29.8781 3.54356 29.9953 3.82949 29.9953 4.12949C29.9953 4.42949 29.8781 4.71543 29.6672 4.92637L26.6672 7.92637C26.2266 8.36699 25.5141 8.36699 25.0781 7.92637C24.6422 7.48574 24.6375 6.77324 25.0781 6.33731L26.1562 5.25918L18 5.24981C17.3766 5.24981 16.875 4.74824 16.875 4.12481C16.875 3.50137 17.3766 2.99981 18 2.99981H26.1609L25.0781 1.92168ZM4.92188 17.6717L3.84375 18.7498H12C12.6234 18.7498 13.125 19.2514 13.125 19.8748C13.125 20.4982 12.6234 20.9998 12 20.9998H3.83906L4.91719 22.0779C5.35781 22.5186 5.35781 23.2311 4.91719 23.667C4.47656 24.1029 3.76406 24.1076 3.32812 23.667L0.328125 20.6717C0.117188 20.4607 0 20.1748 0 19.8748C0 19.5748 0.117188 19.2889 0.328125 19.0779L3.32812 16.0779C3.76875 15.6373 4.48125 15.6373 4.91719 16.0779C5.35313 16.5186 5.35781 17.2311 4.91719 17.667L4.92188 17.6717ZM4.5 2.99981H15.8391C15.6656 3.33731 15.5625 3.71699 15.5625 4.12481C15.5625 5.47012 16.6547 6.56231 18 6.56231H23.5031C23.3156 7.35918 23.5313 8.22637 24.15 8.84981C25.1016 9.80137 26.6438 9.80137 27.5953 8.84981L28.5 7.94512V17.9998C28.5 19.6545 27.1547 20.9998 25.5 20.9998H14.1609C14.3344 20.6623 14.4375 20.2826 14.4375 19.8748C14.4375 18.5295 13.3453 17.4373 12 17.4373H6.49688C6.68438 16.6404 6.46875 15.7732 5.85 15.1498C4.89844 14.1982 3.35625 14.1982 2.40469 15.1498L1.5 16.0545V5.99981C1.5 4.34512 2.84531 2.99981 4.5 2.99981ZM7.5 5.99981H4.5V8.99981C6.15469 8.99981 7.5 7.65449 7.5 5.99981ZM25.5 14.9998C23.8453 14.9998 22.5 16.3451 22.5 17.9998H25.5V14.9998ZM15 16.4998C16.1935 16.4998 17.3381 16.0257 18.182 15.1818C19.0259 14.3379 19.5 13.1933 19.5 11.9998C19.5 10.8063 19.0259 9.66174 18.182 8.81783C17.3381 7.97391 16.1935 7.49981 15 7.49981C13.8065 7.49981 12.6619 7.97391 11.818 8.81783C10.9741 9.66174 10.5 10.8063 10.5 11.9998C10.5 13.1933 10.9741 14.3379 11.818 15.1818C12.6619 16.0257 13.8065 16.4998 15 16.4998Z" fill="#F472B6"/>
</g>
<defs>
<clipPath id="clip0_152_984">
<path d="M0 0H30V24H0V0Z" fill="white"/>
</clipPath>
</defs>
</svg>
