<svg width="18" height="24" viewBox="0 0 18 24" fill="none" xmlns="http://www.w3.org/2000/svg">
<path d="M5.22185 13.8699C5.05779 14.7699 4.40623 18.9652 4.21404 20.1512C4.19998 20.2356 4.16716 20.2684 4.07341 20.2684H0.576539C0.220289 20.2684 -0.0375234 19.959 0.00935162 19.6168L2.75623 2.18399C2.82654 1.73399 3.22966 1.39181 3.69373 1.39181C10.8328 1.39181 11.4328 1.21837 13.2562 1.92618C16.0734 3.01837 16.3312 5.65274 15.3187 8.50274C14.3109 11.4371 11.9203 12.6981 8.75154 12.7356C6.71716 12.7684 5.49373 12.4074 5.22185 13.8699ZM16.739 7.12462C16.6547 7.06368 16.6219 7.04024 16.5984 7.18556C16.5047 7.71993 16.3594 8.24024 16.1859 8.76056C14.3156 14.0949 9.13123 13.6309 6.59998 13.6309C6.31404 13.6309 6.12654 13.7856 6.08904 14.0715C5.02966 20.6527 4.81873 22.0262 4.81873 22.0262C4.77185 22.359 4.98279 22.6309 5.3156 22.6309H8.29216C8.69529 22.6309 9.0281 22.3356 9.10779 21.9324C9.1406 21.6793 9.05623 22.2184 9.78279 17.6527C9.99841 16.6215 10.4531 16.7293 11.1562 16.7293C14.4844 16.7293 17.0812 15.3793 17.8547 11.4652C18.1594 9.834 18.0703 8.11837 16.739 7.12462Z" fill="#60A5FA"/>
</svg>
