<svg width="30" height="18" viewBox="0 0 30 18" fill="none" xmlns="http://www.w3.org/2000/svg">
  <path
    d="M27 0H3C1.34531 0 0 1.34531 0 3V15C0 16.6547 1.34531 18 3 18H8.64375C9.77812 18 10.8188 17.3578 11.325 16.3406L12.825 13.3406C13.2375 12.5203 14.0766 12 14.9953 12C15.9141 12 16.7531 12.5203 17.1656 13.3406L18.6656 16.3406C19.1719 17.3578 20.2125 18 21.3469 18H27C28.6547 18 30 16.6547 30 15V3C30 1.34531 28.6547 0 27 0ZM4.5 8.25C4.5 7.45435 4.81607 6.69129 5.37868 6.12868C5.94129 5.56607 6.70435 5.25 7.5 5.25C8.29565 5.25 9.05871 5.56607 9.62132 6.12868C10.1839 6.69129 10.5 7.45435 10.5 8.25C10.5 9.04565 10.1839 9.80871 9.62132 10.3713C9.05871 10.9339 8.29565 11.25 7.5 11.25C6.70435 11.25 5.94129 10.9339 5.37868 10.3713C4.81607 9.80871 4.5 9.04565 4.5 8.25ZM22.5 5.25C23.2956 5.25 24.0587 5.56607 24.6213 6.12868C25.1839 6.69129 25.5 7.45435 25.5 8.25C25.5 9.04565 25.1839 9.80871 24.6213 10.3713C24.0587 10.9339 23.2956 11.25 22.5 11.25C21.7044 11.25 20.9413 10.9339 20.3787 10.3713C19.8161 9.80871 19.5 9.04565 19.5 8.25C19.5 7.45435 19.8161 6.69129 20.3787 6.12868C20.9413 5.56607 21.7044 5.25 22.5 5.25Z"
    fill="#A78BFA" />
</svg>