<svg width="28" height="24" viewBox="0 0 28 24" fill="none" xmlns="http://www.w3.org/2000/svg">
<g clip-path="url(#clip0_152_987)">
<path d="M24.5 3.75C24.9125 3.75 25.25 4.0875 25.25 4.5V6H2.75V4.5C2.75 4.0875 3.0875 3.75 3.5 3.75H24.5ZM25.25 10.5V19.5C25.25 19.9125 24.9125 20.25 24.5 20.25H3.5C3.0875 20.25 2.75 19.9125 2.75 19.5V10.5H25.25ZM3.5 1.5C1.84531 1.5 0.5 2.84531 0.5 4.5V19.5C0.5 21.1547 1.84531 22.5 3.5 22.5H24.5C26.1547 22.5 27.5 21.1547 27.5 19.5V4.5C27.5 2.84531 26.1547 1.5 24.5 1.5H3.5ZM6.125 15.75C5.50156 15.75 5 16.2516 5 16.875C5 17.4984 5.50156 18 6.125 18H8.375C8.99844 18 9.5 17.4984 9.5 16.875C9.5 16.2516 8.99844 15.75 8.375 15.75H6.125ZM12.125 15.75C11.5016 15.75 11 16.2516 11 16.875C11 17.4984 11.5016 18 12.125 18H17.375C17.9984 18 18.5 17.4984 18.5 16.875C18.5 16.2516 17.9984 15.75 17.375 15.75H12.125Z" fill="#60A5FA"/>
</g>
<defs>
<clipPath id="clip0_152_987">
<path d="M0.5 0H27.5V24H0.5V0Z" fill="white"/>
</clipPath>
</defs>
</svg>
