<svg width="28" height="24" viewBox="0 0 28 24" fill="none" xmlns="http://www.w3.org/2000/svg">
<path d="M18.5563 7.85625C18.8563 7.85625 19.1469 7.87031 19.4375 7.90781C18.6594 4.23281 14.7172 1.5 10.2359 1.5C5.21094 1.5 1.10938 4.9125 1.10938 9.25312C1.10938 11.7562 2.48281 13.8234 4.76094 15.4219L3.85625 18.1688L7.04375 16.5703C8.1875 16.7953 9.09688 17.025 10.2406 17.025C10.5313 17.025 10.8078 17.0109 11.0984 16.9875C10.9109 16.3828 10.8078 15.7406 10.8078 15.075C10.8031 11.0953 14.225 7.85625 18.5563 7.85625ZM13.6578 5.37656C14.3375 5.37656 14.7922 5.83125 14.7922 6.52031C14.7922 7.2 14.3375 7.65469 13.6578 7.65469C12.9641 7.65469 12.2844 7.2 12.2844 6.52031C12.2891 5.83125 12.9688 5.37656 13.6578 5.37656ZM7.26406 7.65469C6.58438 7.65469 5.89062 7.2 5.89062 6.52031C5.89062 5.82656 6.58438 5.37656 7.26406 5.37656C7.95781 5.37656 8.40781 5.83125 8.40781 6.52031C8.40781 7.20469 7.95781 7.65469 7.26406 7.65469ZM26.8906 14.9719C26.8906 11.3203 23.2391 8.34844 19.1375 8.34844C14.7922 8.34844 11.3844 11.3203 11.3844 14.9719C11.3844 18.6234 14.7969 21.5953 19.1375 21.5953C20.0422 21.5953 20.9609 21.3562 21.8844 21.1312L24.3875 22.5047L23.6937 20.2266C25.5312 18.8484 26.8906 17.025 26.8906 14.9719ZM16.6203 13.8234C16.1656 13.8234 15.7156 13.3687 15.7156 12.9047C15.7156 12.45 16.1703 12 16.6203 12C17.3141 12 17.7641 12.4547 17.7641 12.9047C17.7641 13.3734 17.3094 13.8234 16.6203 13.8234ZM21.6406 13.8234C21.1859 13.8234 20.7359 13.3687 20.7359 12.9047C20.7359 12.45 21.1906 12 21.6406 12C22.3203 12 22.7844 12.4547 22.7844 12.9047C22.7891 13.3734 22.3203 13.8234 21.6406 13.8234Z" fill="#34D399"/>
</svg>
