<svg width="291" height="349" viewBox="0 0 291 349" fill="none" xmlns="http://www.w3.org/2000/svg">
<rect width="291" height="349" fill="black"/>
<rect x="37" y="37" width="217" height="217" fill="white"/>
<path d="M62 61.915H66.0752V65.9902H62V61.915Z" fill="black"/>
<path d="M62 65.9902H66.0752V70.0654H62V65.9902Z" fill="black"/>
<path d="M62 70.0659H66.0752V74.1411H62V70.0659Z" fill="black"/>
<path d="M62 74.1411H66.0752V78.2163H62V74.1411Z" fill="black"/>
<path d="M62 78.2163H66.0752V82.2915H62V78.2163Z" fill="black"/>
<path d="M62 82.2915H66.0752V86.3667H62V82.2915Z" fill="black"/>
<path d="M62 86.3667H66.0752V90.4419H62V86.3667Z" fill="black"/>
<path d="M62 94.517H66.0752V98.5923H62V94.517Z" fill="black"/>
<path d="M62 98.5922H66.0752V102.667H62V98.5922Z" fill="black"/>
<path d="M62 102.667H66.0752V106.743H62V102.667Z" fill="black"/>
<path d="M62 106.743H66.0752V110.818H62V106.743Z" fill="black"/>
<path d="M62 110.818H66.0752V114.893H62V110.818Z" fill="black"/>
<path d="M62 118.969H66.0752V123.044H62V118.969Z" fill="black"/>
<path d="M62 123.044H66.0752V127.119H62V123.044Z" fill="black"/>
<path d="M62 131.194H66.0752V135.27H62V131.194Z" fill="black"/>
<path d="M62 147.495H66.0752V151.57H62V147.495Z" fill="black"/>
<path d="M62 151.57H66.0752V155.646H62V151.57Z" fill="black"/>
<path d="M62 155.645H66.0752V159.721H62V155.645Z" fill="black"/>
<path d="M62 159.721H66.0752V163.796H62V159.721Z" fill="black"/>
<path d="M62 176.022H66.0752V180.097H62V176.022Z" fill="black"/>
<path d="M62 180.097H66.0752V184.172H62V180.097Z" fill="black"/>
<path d="M62 184.172H66.0752V188.248H62V184.172Z" fill="black"/>
<path d="M62 188.248H66.0752V192.323H62V188.248Z" fill="black"/>
<path d="M62 192.323H66.0752V196.398H62V192.323Z" fill="black"/>
<path d="M62 200.473H66.0752V204.548H62V200.473Z" fill="black"/>
<path d="M62 204.549H66.0752V208.624H62V204.549Z" fill="black"/>
<path d="M62 208.624H66.0752V212.699H62V208.624Z" fill="black"/>
<path d="M62 212.699H66.0752V216.774H62V212.699Z" fill="black"/>
<path d="M62 216.774H66.0752V220.85H62V216.774Z" fill="black"/>
<path d="M62 220.85H66.0752V224.925H62V220.85Z" fill="black"/>
<path d="M62 224.925H66.0752V229H62V224.925Z" fill="black"/>
<path d="M66.0753 61.915H70.1505V65.9902H66.0753V61.915Z" fill="black"/>
<path d="M66.0753 86.3667H70.1505V90.4419H66.0753V86.3667Z" fill="black"/>
<path d="M66.0753 102.667H70.1505V106.743H66.0753V102.667Z" fill="black"/>
<path d="M66.0753 106.743H70.1505V110.818H66.0753V106.743Z" fill="black"/>
<path d="M66.0753 114.894H70.1505V118.969H66.0753V114.894Z" fill="black"/>
<path d="M66.0753 118.969H70.1505V123.044H66.0753V118.969Z" fill="black"/>
<path d="M66.0753 127.119H70.1505V131.194H66.0753V127.119Z" fill="black"/>
<path d="M66.0753 135.269H70.1505V139.345H66.0753V135.269Z" fill="black"/>
<path d="M66.0753 143.42H70.1505V147.495H66.0753V143.42Z" fill="black"/>
<path d="M66.0753 147.495H70.1505V151.57H66.0753V147.495Z" fill="black"/>
<path d="M66.0753 155.645H70.1505V159.721H66.0753V155.645Z" fill="black"/>
<path d="M66.0753 159.721H70.1505V163.796H66.0753V159.721Z" fill="black"/>
<path d="M66.0753 163.796H70.1505V167.872H66.0753V163.796Z" fill="black"/>
<path d="M66.0753 167.872H70.1505V171.947H66.0753V167.872Z" fill="black"/>
<path d="M66.0753 176.022H70.1505V180.097H66.0753V176.022Z" fill="black"/>
<path d="M66.0753 180.097H70.1505V184.172H66.0753V180.097Z" fill="black"/>
<path d="M66.0753 200.473H70.1505V204.548H66.0753V200.473Z" fill="black"/>
<path d="M66.0753 224.925H70.1505V229H66.0753V224.925Z" fill="black"/>
<path d="M70.1505 61.915H74.2257V65.9902H70.1505V61.915Z" fill="black"/>
<path d="M70.1505 70.0659H74.2257V74.1411H70.1505V70.0659Z" fill="black"/>
<path d="M70.1505 74.1411H74.2257V78.2163H70.1505V74.1411Z" fill="black"/>
<path d="M70.1505 78.2163H74.2257V82.2915H70.1505V78.2163Z" fill="black"/>
<path d="M70.1505 86.3667H74.2257V90.4419H70.1505V86.3667Z" fill="black"/>
<path d="M70.1505 94.517H74.2257V98.5923H70.1505V94.517Z" fill="black"/>
<path d="M70.1505 102.667H74.2257V106.743H70.1505V102.667Z" fill="black"/>
<path d="M70.1505 106.743H74.2257V110.818H70.1505V106.743Z" fill="black"/>
<path d="M70.1505 110.818H74.2257V114.893H70.1505V110.818Z" fill="black"/>
<path d="M70.1505 114.894H74.2257V118.969H70.1505V114.894Z" fill="black"/>
<path d="M70.1505 123.044H74.2257V127.119H70.1505V123.044Z" fill="black"/>
<path d="M70.1505 127.119H74.2257V131.194H70.1505V127.119Z" fill="black"/>
<path d="M70.1505 139.345H74.2257V143.42H70.1505V139.345Z" fill="black"/>
<path d="M70.1505 143.42H74.2257V147.495H70.1505V143.42Z" fill="black"/>
<path d="M70.1505 147.495H74.2257V151.57H70.1505V147.495Z" fill="black"/>
<path d="M70.1505 151.57H74.2257V155.646H70.1505V151.57Z" fill="black"/>
<path d="M70.1505 155.645H74.2257V159.721H70.1505V155.645Z" fill="black"/>
<path d="M70.1505 167.872H74.2257V171.947H70.1505V167.872Z" fill="black"/>
<path d="M70.1505 171.947H74.2257V176.022H70.1505V171.947Z" fill="black"/>
<path d="M70.1505 180.097H74.2257V184.172H70.1505V180.097Z" fill="black"/>
<path d="M70.1505 192.323H74.2257V196.398H70.1505V192.323Z" fill="black"/>
<path d="M70.1505 200.473H74.2257V204.548H70.1505V200.473Z" fill="black"/>
<path d="M70.1505 208.624H74.2257V212.699H70.1505V208.624Z" fill="black"/>
<path d="M70.1505 212.699H74.2257V216.774H70.1505V212.699Z" fill="black"/>
<path d="M70.1505 216.774H74.2257V220.85H70.1505V216.774Z" fill="black"/>
<path d="M70.1505 224.925H74.2257V229H70.1505V224.925Z" fill="black"/>
<path d="M74.2257 61.915H78.3009V65.9902H74.2257V61.915Z" fill="black"/>
<path d="M74.2257 70.0659H78.3009V74.1411H74.2257V70.0659Z" fill="black"/>
<path d="M74.2257 74.1411H78.3009V78.2163H74.2257V74.1411Z" fill="black"/>
<path d="M74.2257 78.2163H78.3009V82.2915H74.2257V78.2163Z" fill="black"/>
<path d="M74.2257 86.3667H78.3009V90.4419H74.2257V86.3667Z" fill="black"/>
<path d="M74.2257 94.517H78.3009V98.5923H74.2257V94.517Z" fill="black"/>
<path d="M74.2257 98.5922H78.3009V102.667H74.2257V98.5922Z" fill="black"/>
<path d="M74.2257 102.667H78.3009V106.743H74.2257V102.667Z" fill="black"/>
<path d="M74.2257 110.818H78.3009V114.893H74.2257V110.818Z" fill="black"/>
<path d="M74.2257 147.495H78.3009V151.57H74.2257V147.495Z" fill="black"/>
<path d="M74.2257 159.721H78.3009V163.796H74.2257V159.721Z" fill="black"/>
<path d="M74.2257 176.022H78.3009V180.097H74.2257V176.022Z" fill="black"/>
<path d="M74.2257 180.097H78.3009V184.172H74.2257V180.097Z" fill="black"/>
<path d="M74.2257 184.172H78.3009V188.248H74.2257V184.172Z" fill="black"/>
<path d="M74.2257 188.248H78.3009V192.323H74.2257V188.248Z" fill="black"/>
<path d="M74.2257 200.473H78.3009V204.548H74.2257V200.473Z" fill="black"/>
<path d="M74.2257 208.624H78.3009V212.699H74.2257V208.624Z" fill="black"/>
<path d="M74.2257 212.699H78.3009V216.774H74.2257V212.699Z" fill="black"/>
<path d="M74.2257 216.774H78.3009V220.85H74.2257V216.774Z" fill="black"/>
<path d="M74.2257 224.925H78.3009V229H74.2257V224.925Z" fill="black"/>
<path d="M78.301 61.915H82.3762V65.9902H78.301V61.915Z" fill="black"/>
<path d="M78.301 70.0659H82.3762V74.1411H78.301V70.0659Z" fill="black"/>
<path d="M78.301 74.1411H82.3762V78.2163H78.301V74.1411Z" fill="black"/>
<path d="M78.301 78.2163H82.3762V82.2915H78.301V78.2163Z" fill="black"/>
<path d="M78.301 86.3667H82.3762V90.4419H78.301V86.3667Z" fill="black"/>
<path d="M78.301 94.517H82.3762V98.5923H78.301V94.517Z" fill="black"/>
<path d="M78.301 98.5922H82.3762V102.667H78.301V98.5922Z" fill="black"/>
<path d="M78.301 106.743H82.3762V110.818H78.301V106.743Z" fill="black"/>
<path d="M78.301 123.044H82.3762V127.119H78.301V123.044Z" fill="black"/>
<path d="M78.301 127.119H82.3762V131.194H78.301V127.119Z" fill="black"/>
<path d="M78.301 135.269H82.3762V139.345H78.301V135.269Z" fill="black"/>
<path d="M78.301 143.42H82.3762V147.495H78.301V143.42Z" fill="black"/>
<path d="M78.301 147.495H82.3762V151.57H78.301V147.495Z" fill="black"/>
<path d="M78.301 155.645H82.3762V159.721H78.301V155.645Z" fill="black"/>
<path d="M78.301 159.721H82.3762V163.796H78.301V159.721Z" fill="black"/>
<path d="M78.301 167.872H82.3762V171.947H78.301V167.872Z" fill="black"/>
<path d="M78.301 176.022H82.3762V180.097H78.301V176.022Z" fill="black"/>
<path d="M78.301 180.097H82.3762V184.172H78.301V180.097Z" fill="black"/>
<path d="M78.301 184.172H82.3762V188.248H78.301V184.172Z" fill="black"/>
<path d="M78.301 200.473H82.3762V204.548H78.301V200.473Z" fill="black"/>
<path d="M78.301 208.624H82.3762V212.699H78.301V208.624Z" fill="black"/>
<path d="M78.301 212.699H82.3762V216.774H78.301V212.699Z" fill="black"/>
<path d="M78.301 216.774H82.3762V220.85H78.301V216.774Z" fill="black"/>
<path d="M78.301 224.925H82.3762V229H78.301V224.925Z" fill="black"/>
<path d="M82.3762 61.915H86.4515V65.9902H82.3762V61.915Z" fill="black"/>
<path d="M82.3762 86.3667H86.4515V90.4419H82.3762V86.3667Z" fill="black"/>
<path d="M82.3762 94.517H86.4515V98.5923H82.3762V94.517Z" fill="black"/>
<path d="M82.3762 98.5922H86.4515V102.667H82.3762V98.5922Z" fill="black"/>
<path d="M82.3762 102.667H86.4515V106.743H82.3762V102.667Z" fill="black"/>
<path d="M82.3762 106.743H86.4515V110.818H82.3762V106.743Z" fill="black"/>
<path d="M82.3762 118.969H86.4515V123.044H82.3762V118.969Z" fill="black"/>
<path d="M82.3762 123.044H86.4515V127.119H82.3762V123.044Z" fill="black"/>
<path d="M82.3762 127.119H86.4515V131.194H82.3762V127.119Z" fill="black"/>
<path d="M82.3762 139.345H86.4515V143.42H82.3762V139.345Z" fill="black"/>
<path d="M82.3762 143.42H86.4515V147.495H82.3762V143.42Z" fill="black"/>
<path d="M82.3762 147.495H86.4515V151.57H82.3762V147.495Z" fill="black"/>
<path d="M82.3762 151.57H86.4515V155.646H82.3762V151.57Z" fill="black"/>
<path d="M82.3762 155.645H86.4515V159.721H82.3762V155.645Z" fill="black"/>
<path d="M82.3762 159.721H86.4515V163.796H82.3762V159.721Z" fill="black"/>
<path d="M82.3762 163.796H86.4515V167.872H82.3762V163.796Z" fill="black"/>
<path d="M82.3762 188.248H86.4515V192.323H82.3762V188.248Z" fill="black"/>
<path d="M82.3762 200.473H86.4515V204.548H82.3762V200.473Z" fill="black"/>
<path d="M82.3762 224.925H86.4515V229H82.3762V224.925Z" fill="black"/>
<path d="M86.4514 61.915H90.5267V65.9902H86.4514V61.915Z" fill="black"/>
<path d="M86.4514 65.9902H90.5267V70.0654H86.4514V65.9902Z" fill="black"/>
<path d="M86.4514 70.0659H90.5267V74.1411H86.4514V70.0659Z" fill="black"/>
<path d="M86.4514 74.1411H90.5267V78.2163H86.4514V74.1411Z" fill="black"/>
<path d="M86.4514 78.2163H90.5267V82.2915H86.4514V78.2163Z" fill="black"/>
<path d="M86.4514 82.2915H90.5267V86.3667H86.4514V82.2915Z" fill="black"/>
<path d="M86.4514 86.3667H90.5267V90.4419H86.4514V86.3667Z" fill="black"/>
<path d="M86.4514 94.517H90.5267V98.5923H86.4514V94.517Z" fill="black"/>
<path d="M86.4514 102.667H90.5267V106.743H86.4514V102.667Z" fill="black"/>
<path d="M86.4514 110.818H90.5267V114.893H86.4514V110.818Z" fill="black"/>
<path d="M86.4514 118.969H90.5267V123.044H86.4514V118.969Z" fill="black"/>
<path d="M86.4514 127.119H90.5267V131.194H86.4514V127.119Z" fill="black"/>
<path d="M86.4514 135.269H90.5267V139.345H86.4514V135.269Z" fill="black"/>
<path d="M86.4514 143.42H90.5267V147.495H86.4514V143.42Z" fill="black"/>
<path d="M86.4514 151.57H90.5267V155.646H86.4514V151.57Z" fill="black"/>
<path d="M86.4514 159.721H90.5267V163.796H86.4514V159.721Z" fill="black"/>
<path d="M86.4514 167.872H90.5267V171.947H86.4514V167.872Z" fill="black"/>
<path d="M86.4514 176.022H90.5267V180.097H86.4514V176.022Z" fill="black"/>
<path d="M86.4514 184.172H90.5267V188.248H86.4514V184.172Z" fill="black"/>
<path d="M86.4514 192.323H90.5267V196.398H86.4514V192.323Z" fill="black"/>
<path d="M86.4514 200.473H90.5267V204.548H86.4514V200.473Z" fill="black"/>
<path d="M86.4514 204.549H90.5267V208.624H86.4514V204.549Z" fill="black"/>
<path d="M86.4514 208.624H90.5267V212.699H86.4514V208.624Z" fill="black"/>
<path d="M86.4514 212.699H90.5267V216.774H86.4514V212.699Z" fill="black"/>
<path d="M86.4514 216.774H90.5267V220.85H86.4514V216.774Z" fill="black"/>
<path d="M86.4514 220.85H90.5267V224.925H86.4514V220.85Z" fill="black"/>
<path d="M86.4514 224.925H90.5267V229H86.4514V224.925Z" fill="black"/>
<path d="M90.5267 98.5922H94.6019V102.667H90.5267V98.5922Z" fill="black"/>
<path d="M90.5267 106.743H94.6019V110.818H90.5267V106.743Z" fill="black"/>
<path d="M90.5267 110.818H94.6019V114.893H90.5267V110.818Z" fill="black"/>
<path d="M90.5267 114.894H94.6019V118.969H90.5267V114.894Z" fill="black"/>
<path d="M90.5267 135.269H94.6019V139.345H90.5267V135.269Z" fill="black"/>
<path d="M90.5267 147.495H94.6019V151.57H90.5267V147.495Z" fill="black"/>
<path d="M90.5267 151.57H94.6019V155.646H90.5267V151.57Z" fill="black"/>
<path d="M90.5267 163.796H94.6019V167.872H90.5267V163.796Z" fill="black"/>
<path d="M90.5267 171.947H94.6019V176.022H90.5267V171.947Z" fill="black"/>
<path d="M90.5267 176.022H94.6019V180.097H90.5267V176.022Z" fill="black"/>
<path d="M90.5267 184.172H94.6019V188.248H90.5267V184.172Z" fill="black"/>
<path d="M90.5267 192.323H94.6019V196.398H90.5267V192.323Z" fill="black"/>
<path d="M94.6019 70.0659H98.6772V74.1411H94.6019V70.0659Z" fill="black"/>
<path d="M94.6019 74.1411H98.6772V78.2163H94.6019V74.1411Z" fill="black"/>
<path d="M94.6019 78.2163H98.6772V82.2915H94.6019V78.2163Z" fill="black"/>
<path d="M94.6019 82.2915H98.6772V86.3667H94.6019V82.2915Z" fill="black"/>
<path d="M94.6019 86.3667H98.6772V90.4419H94.6019V86.3667Z" fill="black"/>
<path d="M94.6019 90.4418H98.6772V94.5171H94.6019V90.4418Z" fill="black"/>
<path d="M94.6019 102.667H98.6772V106.743H94.6019V102.667Z" fill="black"/>
<path d="M94.6019 106.743H98.6772V110.818H94.6019V106.743Z" fill="black"/>
<path d="M94.6019 110.818H98.6772V114.893H94.6019V110.818Z" fill="black"/>
<path d="M94.6019 127.119H98.6772V131.194H94.6019V127.119Z" fill="black"/>
<path d="M94.6019 135.269H98.6772V139.345H94.6019V135.269Z" fill="black"/>
<path d="M94.6019 143.42H98.6772V147.495H94.6019V143.42Z" fill="black"/>
<path d="M94.6019 151.57H98.6772V155.646H94.6019V151.57Z" fill="black"/>
<path d="M94.6019 159.721H98.6772V163.796H94.6019V159.721Z" fill="black"/>
<path d="M94.6019 163.796H98.6772V167.872H94.6019V163.796Z" fill="black"/>
<path d="M94.6019 171.947H98.6772V176.022H94.6019V171.947Z" fill="black"/>
<path d="M94.6019 180.097H98.6772V184.172H94.6019V180.097Z" fill="black"/>
<path d="M94.6019 184.172H98.6772V188.248H94.6019V184.172Z" fill="black"/>
<path d="M94.6019 188.248H98.6772V192.323H94.6019V188.248Z" fill="black"/>
<path d="M94.6019 192.323H98.6772V196.398H94.6019V192.323Z" fill="black"/>
<path d="M94.6019 196.398H98.6772V200.473H94.6019V196.398Z" fill="black"/>
<path d="M94.6019 204.549H98.6772V208.624H94.6019V204.549Z" fill="black"/>
<path d="M94.6019 208.624H98.6772V212.699H94.6019V208.624Z" fill="black"/>
<path d="M94.6019 212.699H98.6772V216.774H94.6019V212.699Z" fill="black"/>
<path d="M94.6019 216.774H98.6772V220.85H94.6019V216.774Z" fill="black"/>
<path d="M94.6019 224.925H98.6772V229H94.6019V224.925Z" fill="black"/>
<path d="M98.6771 61.915H102.752V65.9902H98.6771V61.915Z" fill="black"/>
<path d="M98.6771 65.9902H102.752V70.0654H98.6771V65.9902Z" fill="black"/>
<path d="M98.6771 74.1411H102.752V78.2163H98.6771V74.1411Z" fill="black"/>
<path d="M98.6771 82.2915H102.752V86.3667H98.6771V82.2915Z" fill="black"/>
<path d="M98.6771 98.5922H102.752V102.667H98.6771V98.5922Z" fill="black"/>
<path d="M98.6771 123.044H102.752V127.119H98.6771V123.044Z" fill="black"/>
<path d="M98.6771 131.194H102.752V135.27H98.6771V131.194Z" fill="black"/>
<path d="M98.6771 155.645H102.752V159.721H98.6771V155.645Z" fill="black"/>
<path d="M98.6771 167.872H102.752V171.947H98.6771V167.872Z" fill="black"/>
<path d="M98.6771 180.097H102.752V184.172H98.6771V180.097Z" fill="black"/>
<path d="M98.6771 184.172H102.752V188.248H98.6771V184.172Z" fill="black"/>
<path d="M98.6771 192.323H102.752V196.398H98.6771V192.323Z" fill="black"/>
<path d="M98.6771 196.398H102.752V200.473H98.6771V196.398Z" fill="black"/>
<path d="M98.6771 204.549H102.752V208.624H98.6771V204.549Z" fill="black"/>
<path d="M98.6771 212.699H102.752V216.774H98.6771V212.699Z" fill="black"/>
<path d="M98.6771 216.774H102.752V220.85H98.6771V216.774Z" fill="black"/>
<path d="M98.6771 224.925H102.752V229H98.6771V224.925Z" fill="black"/>
<path d="M102.752 61.915H106.828V65.9902H102.752V61.915Z" fill="black"/>
<path d="M102.752 74.1411H106.828V78.2163H102.752V74.1411Z" fill="black"/>
<path d="M102.752 82.2915H106.828V86.3667H102.752V82.2915Z" fill="black"/>
<path d="M102.752 86.3667H106.828V90.4419H102.752V86.3667Z" fill="black"/>
<path d="M102.752 94.517H106.828V98.5923H102.752V94.517Z" fill="black"/>
<path d="M102.752 98.5922H106.828V102.667H102.752V98.5922Z" fill="black"/>
<path d="M102.752 102.667H106.828V106.743H102.752V102.667Z" fill="black"/>
<path d="M102.752 106.743H106.828V110.818H102.752V106.743Z" fill="black"/>
<path d="M102.752 114.894H106.828V118.969H102.752V114.894Z" fill="black"/>
<path d="M102.752 131.194H106.828V135.27H102.752V131.194Z" fill="black"/>
<path d="M102.752 135.269H106.828V139.345H102.752V135.269Z" fill="black"/>
<path d="M102.752 139.345H106.828V143.42H102.752V139.345Z" fill="black"/>
<path d="M102.752 151.57H106.828V155.646H102.752V151.57Z" fill="black"/>
<path d="M102.752 155.645H106.828V159.721H102.752V155.645Z" fill="black"/>
<path d="M102.752 176.022H106.828V180.097H102.752V176.022Z" fill="black"/>
<path d="M102.752 184.172H106.828V188.248H102.752V184.172Z" fill="black"/>
<path d="M102.752 188.248H106.828V192.323H102.752V188.248Z" fill="black"/>
<path d="M102.752 192.323H106.828V196.398H102.752V192.323Z" fill="black"/>
<path d="M102.752 220.85H106.828V224.925H102.752V220.85Z" fill="black"/>
<path d="M106.828 61.915H110.903V65.9902H106.828V61.915Z" fill="black"/>
<path d="M106.828 65.9902H110.903V70.0654H106.828V65.9902Z" fill="black"/>
<path d="M106.828 70.0659H110.903V74.1411H106.828V70.0659Z" fill="black"/>
<path d="M106.828 74.1411H110.903V78.2163H106.828V74.1411Z" fill="black"/>
<path d="M106.828 82.2915H110.903V86.3667H106.828V82.2915Z" fill="black"/>
<path d="M106.828 90.4418H110.903V94.5171H106.828V90.4418Z" fill="black"/>
<path d="M106.828 98.5922H110.903V102.667H106.828V98.5922Z" fill="black"/>
<path d="M106.828 106.743H110.903V110.818H106.828V106.743Z" fill="black"/>
<path d="M106.828 114.894H110.903V118.969H106.828V114.894Z" fill="black"/>
<path d="M106.828 123.044H110.903V127.119H106.828V123.044Z" fill="black"/>
<path d="M106.828 127.119H110.903V131.194H106.828V127.119Z" fill="black"/>
<path d="M106.828 139.345H110.903V143.42H106.828V139.345Z" fill="black"/>
<path d="M106.828 155.645H110.903V159.721H106.828V155.645Z" fill="black"/>
<path d="M106.828 163.796H110.903V167.872H106.828V163.796Z" fill="black"/>
<path d="M106.828 176.022H110.903V180.097H106.828V176.022Z" fill="black"/>
<path d="M106.828 184.172H110.903V188.248H106.828V184.172Z" fill="black"/>
<path d="M106.828 200.473H110.903V204.548H106.828V200.473Z" fill="black"/>
<path d="M106.828 212.699H110.903V216.774H106.828V212.699Z" fill="black"/>
<path d="M106.828 216.774H110.903V220.85H106.828V216.774Z" fill="black"/>
<path d="M106.828 220.85H110.903V224.925H106.828V220.85Z" fill="black"/>
<path d="M106.828 224.925H110.903V229H106.828V224.925Z" fill="black"/>
<path d="M110.903 65.9902H114.978V70.0654H110.903V65.9902Z" fill="black"/>
<path d="M110.903 74.1411H114.978V78.2163H110.903V74.1411Z" fill="black"/>
<path d="M110.903 78.2163H114.978V82.2915H110.903V78.2163Z" fill="black"/>
<path d="M110.903 82.2915H114.978V86.3667H110.903V82.2915Z" fill="black"/>
<path d="M110.903 86.3667H114.978V90.4419H110.903V86.3667Z" fill="black"/>
<path d="M110.903 94.517H114.978V98.5923H110.903V94.517Z" fill="black"/>
<path d="M110.903 98.5922H114.978V102.667H110.903V98.5922Z" fill="black"/>
<path d="M110.903 106.743H114.978V110.818H110.903V106.743Z" fill="black"/>
<path d="M110.903 110.818H114.978V114.893H110.903V110.818Z" fill="black"/>
<path d="M110.903 114.894H114.978V118.969H110.903V114.894Z" fill="black"/>
<path d="M110.903 127.119H114.978V131.194H110.903V127.119Z" fill="black"/>
<path d="M110.903 135.269H114.978V139.345H110.903V135.269Z" fill="black"/>
<path d="M110.903 139.345H114.978V143.42H110.903V139.345Z" fill="black"/>
<path d="M110.903 143.42H114.978V147.495H110.903V143.42Z" fill="black"/>
<path d="M110.903 171.947H114.978V176.022H110.903V171.947Z" fill="black"/>
<path d="M110.903 188.248H114.978V192.323H110.903V188.248Z" fill="black"/>
<path d="M110.903 192.323H114.978V196.398H110.903V192.323Z" fill="black"/>
<path d="M110.903 196.398H114.978V200.473H110.903V196.398Z" fill="black"/>
<path d="M110.903 200.473H114.978V204.548H110.903V200.473Z" fill="black"/>
<path d="M110.903 208.624H114.978V212.699H110.903V208.624Z" fill="black"/>
<path d="M114.978 65.9902H119.053V70.0654H114.978V65.9902Z" fill="black"/>
<path d="M114.978 78.2163H119.053V82.2915H114.978V78.2163Z" fill="black"/>
<path d="M114.978 82.2915H119.053V86.3667H114.978V82.2915Z" fill="black"/>
<path d="M114.978 90.4418H119.053V94.5171H114.978V90.4418Z" fill="black"/>
<path d="M114.978 94.517H119.053V98.5923H114.978V94.517Z" fill="black"/>
<path d="M114.978 98.5922H119.053V102.667H114.978V98.5922Z" fill="black"/>
<path d="M114.978 102.667H119.053V106.743H114.978V102.667Z" fill="black"/>
<path d="M114.978 106.743H119.053V110.818H114.978V106.743Z" fill="black"/>
<path d="M114.978 114.894H119.053V118.969H114.978V114.894Z" fill="black"/>
<path d="M114.978 123.044H119.053V127.119H114.978V123.044Z" fill="black"/>
<path d="M114.978 127.119H119.053V131.194H114.978V127.119Z" fill="black"/>
<path d="M114.978 143.42H119.053V147.495H114.978V143.42Z" fill="black"/>
<path d="M114.978 151.57H119.053V155.646H114.978V151.57Z" fill="black"/>
<path d="M114.978 155.645H119.053V159.721H114.978V155.645Z" fill="black"/>
<path d="M114.978 159.721H119.053V163.796H114.978V159.721Z" fill="black"/>
<path d="M114.978 163.796H119.053V167.872H114.978V163.796Z" fill="black"/>
<path d="M114.978 176.022H119.053V180.097H114.978V176.022Z" fill="black"/>
<path d="M114.978 184.172H119.053V188.248H114.978V184.172Z" fill="black"/>
<path d="M114.978 188.248H119.053V192.323H114.978V188.248Z" fill="black"/>
<path d="M114.978 192.323H119.053V196.398H114.978V192.323Z" fill="black"/>
<path d="M114.978 204.549H119.053V208.624H114.978V204.549Z" fill="black"/>
<path d="M114.978 208.624H119.053V212.699H114.978V208.624Z" fill="black"/>
<path d="M114.978 224.925H119.053V229H114.978V224.925Z" fill="black"/>
<path d="M119.053 61.915H123.129V65.9902H119.053V61.915Z" fill="black"/>
<path d="M119.053 78.2163H123.129V82.2915H119.053V78.2163Z" fill="black"/>
<path d="M119.053 82.2915H123.129V86.3667H119.053V82.2915Z" fill="black"/>
<path d="M119.053 86.3667H123.129V90.4419H119.053V86.3667Z" fill="black"/>
<path d="M119.053 90.4418H123.129V94.5171H119.053V90.4418Z" fill="black"/>
<path d="M119.053 94.517H123.129V98.5923H119.053V94.517Z" fill="black"/>
<path d="M119.053 98.5922H123.129V102.667H119.053V98.5922Z" fill="black"/>
<path d="M119.053 106.743H123.129V110.818H119.053V106.743Z" fill="black"/>
<path d="M119.053 114.894H123.129V118.969H119.053V114.894Z" fill="black"/>
<path d="M119.053 123.044H123.129V127.119H119.053V123.044Z" fill="black"/>
<path d="M119.053 127.119H123.129V131.194H119.053V127.119Z" fill="black"/>
<path d="M119.053 131.194H123.129V135.27H119.053V131.194Z" fill="black"/>
<path d="M119.053 135.269H123.129V139.345H119.053V135.269Z" fill="black"/>
<path d="M119.053 147.495H123.129V151.57H119.053V147.495Z" fill="black"/>
<path d="M119.053 151.57H123.129V155.646H119.053V151.57Z" fill="black"/>
<path d="M119.053 155.645H123.129V159.721H119.053V155.645Z" fill="black"/>
<path d="M119.053 163.796H123.129V167.872H119.053V163.796Z" fill="black"/>
<path d="M119.053 167.872H123.129V171.947H119.053V167.872Z" fill="black"/>
<path d="M119.053 171.947H123.129V176.022H119.053V171.947Z" fill="black"/>
<path d="M119.053 180.097H123.129V184.172H119.053V180.097Z" fill="black"/>
<path d="M119.053 184.172H123.129V188.248H119.053V184.172Z" fill="black"/>
<path d="M119.053 192.323H123.129V196.398H119.053V192.323Z" fill="black"/>
<path d="M119.053 200.473H123.129V204.548H119.053V200.473Z" fill="black"/>
<path d="M119.053 208.624H123.129V212.699H119.053V208.624Z" fill="black"/>
<path d="M119.053 216.774H123.129V220.85H119.053V216.774Z" fill="black"/>
<path d="M119.053 224.925H123.129V229H119.053V224.925Z" fill="black"/>
<path d="M123.129 61.915H127.204V65.9902H123.129V61.915Z" fill="black"/>
<path d="M123.129 70.0659H127.204V74.1411H123.129V70.0659Z" fill="black"/>
<path d="M123.129 78.2163H127.204V82.2915H123.129V78.2163Z" fill="black"/>
<path d="M123.129 82.2915H127.204V86.3667H123.129V82.2915Z" fill="black"/>
<path d="M123.129 90.4418H127.204V94.5171H123.129V90.4418Z" fill="black"/>
<path d="M123.129 94.517H127.204V98.5923H123.129V94.517Z" fill="black"/>
<path d="M123.129 98.5922H127.204V102.667H123.129V98.5922Z" fill="black"/>
<path d="M123.129 102.667H127.204V106.743H123.129V102.667Z" fill="black"/>
<path d="M123.129 114.894H127.204V118.969H123.129V114.894Z" fill="black"/>
<path d="M123.129 127.119H127.204V131.194H123.129V127.119Z" fill="black"/>
<path d="M123.129 151.57H127.204V155.646H123.129V151.57Z" fill="black"/>
<path d="M123.129 159.721H127.204V163.796H123.129V159.721Z" fill="black"/>
<path d="M123.129 167.872H127.204V171.947H123.129V167.872Z" fill="black"/>
<path d="M123.129 176.022H127.204V180.097H123.129V176.022Z" fill="black"/>
<path d="M123.129 188.248H127.204V192.323H123.129V188.248Z" fill="black"/>
<path d="M123.129 192.323H127.204V196.398H123.129V192.323Z" fill="black"/>
<path d="M123.129 196.398H127.204V200.473H123.129V196.398Z" fill="black"/>
<path d="M123.129 200.473H127.204V204.548H123.129V200.473Z" fill="black"/>
<path d="M123.129 204.549H127.204V208.624H123.129V204.549Z" fill="black"/>
<path d="M123.129 220.85H127.204V224.925H123.129V220.85Z" fill="black"/>
<path d="M127.204 61.915H131.279V65.9902H127.204V61.915Z" fill="black"/>
<path d="M127.204 74.1411H131.279V78.2163H127.204V74.1411Z" fill="black"/>
<path d="M127.204 82.2915H131.279V86.3667H127.204V82.2915Z" fill="black"/>
<path d="M127.204 86.3667H131.279V90.4419H127.204V86.3667Z" fill="black"/>
<path d="M127.204 94.517H131.279V98.5923H127.204V94.517Z" fill="black"/>
<path d="M127.204 98.5922H131.279V102.667H127.204V98.5922Z" fill="black"/>
<path d="M127.204 102.667H131.279V106.743H127.204V102.667Z" fill="black"/>
<path d="M127.204 106.743H131.279V110.818H127.204V106.743Z" fill="black"/>
<path d="M127.204 110.818H131.279V114.893H127.204V110.818Z" fill="black"/>
<path d="M127.204 114.894H131.279V118.969H127.204V114.894Z" fill="black"/>
<path d="M127.204 123.044H131.279V127.119H127.204V123.044Z" fill="black"/>
<path d="M127.204 139.345H131.279V143.42H127.204V139.345Z" fill="black"/>
<path d="M127.204 151.57H131.279V155.646H127.204V151.57Z" fill="black"/>
<path d="M127.204 155.645H131.279V159.721H127.204V155.645Z" fill="black"/>
<path d="M127.204 159.721H131.279V163.796H127.204V159.721Z" fill="black"/>
<path d="M127.204 163.796H131.279V167.872H127.204V163.796Z" fill="black"/>
<path d="M127.204 171.947H131.279V176.022H127.204V171.947Z" fill="black"/>
<path d="M127.204 184.172H131.279V188.248H127.204V184.172Z" fill="black"/>
<path d="M127.204 192.323H131.279V196.398H127.204V192.323Z" fill="black"/>
<path d="M127.204 196.398H131.279V200.473H127.204V196.398Z" fill="black"/>
<path d="M127.204 208.624H131.279V212.699H127.204V208.624Z" fill="black"/>
<path d="M127.204 216.774H131.279V220.85H127.204V216.774Z" fill="black"/>
<path d="M127.204 220.85H131.279V224.925H127.204V220.85Z" fill="black"/>
<path d="M131.279 118.969H135.354V123.044H131.279V118.969Z" fill="black"/>
<path d="M131.279 131.194H135.354V135.27H131.279V131.194Z" fill="black"/>
<path d="M131.279 135.269H135.354V139.345H131.279V135.269Z" fill="black"/>
<path d="M131.279 139.345H135.354V143.42H131.279V139.345Z" fill="black"/>
<path d="M131.279 151.57H135.354V155.646H131.279V151.57Z" fill="black"/>
<path d="M131.279 167.872H135.354V171.947H131.279V167.872Z" fill="black"/>
<path d="M131.279 184.172H135.354V188.248H131.279V184.172Z" fill="black"/>
<path d="M131.279 192.323H135.354V196.398H131.279V192.323Z" fill="black"/>
<path d="M131.279 212.699H135.354V216.774H131.279V212.699Z" fill="black"/>
<path d="M131.279 216.774H135.354V220.85H131.279V216.774Z" fill="black"/>
<path d="M131.279 220.85H135.354V224.925H131.279V220.85Z" fill="black"/>
<path d="M135.354 61.915H139.43V65.9902H135.354V61.915Z" fill="black"/>
<path d="M135.354 65.9902H139.43V70.0654H135.354V65.9902Z" fill="black"/>
<path d="M135.354 74.1411H139.43V78.2163H135.354V74.1411Z" fill="black"/>
<path d="M135.354 86.3667H139.43V90.4419H135.354V86.3667Z" fill="black"/>
<path d="M135.354 90.4418H139.43V94.5171H135.354V90.4418Z" fill="black"/>
<path d="M135.354 94.517H139.43V98.5923H135.354V94.517Z" fill="black"/>
<path d="M135.354 110.818H139.43V114.893H135.354V110.818Z" fill="black"/>
<path d="M135.354 114.894H139.43V118.969H135.354V114.894Z" fill="black"/>
<path d="M135.354 118.969H139.43V123.044H135.354V118.969Z" fill="black"/>
<path d="M135.354 131.194H139.43V135.27H135.354V131.194Z" fill="black"/>
<path d="M135.354 139.345H139.43V143.42H135.354V139.345Z" fill="black"/>
<path d="M135.354 147.495H139.43V151.57H135.354V147.495Z" fill="black"/>
<path d="M135.354 151.57H139.43V155.646H135.354V151.57Z" fill="black"/>
<path d="M135.354 159.721H139.43V163.796H135.354V159.721Z" fill="black"/>
<path d="M135.354 163.796H139.43V167.872H135.354V163.796Z" fill="black"/>
<path d="M135.354 167.872H139.43V171.947H135.354V167.872Z" fill="black"/>
<path d="M135.354 180.097H139.43V184.172H135.354V180.097Z" fill="black"/>
<path d="M135.354 184.172H139.43V188.248H135.354V184.172Z" fill="black"/>
<path d="M135.354 188.248H139.43V192.323H135.354V188.248Z" fill="black"/>
<path d="M135.354 196.398H139.43V200.473H135.354V196.398Z" fill="black"/>
<path d="M135.354 200.473H139.43V204.548H135.354V200.473Z" fill="black"/>
<path d="M135.354 208.624H139.43V212.699H135.354V208.624Z" fill="black"/>
<path d="M135.354 216.774H139.43V220.85H135.354V216.774Z" fill="black"/>
<path d="M135.354 224.925H139.43V229H135.354V224.925Z" fill="black"/>
<path d="M139.43 70.0659H143.505V74.1411H139.43V70.0659Z" fill="black"/>
<path d="M139.43 78.2163H143.505V82.2915H139.43V78.2163Z" fill="black"/>
<path d="M139.43 82.2915H143.505V86.3667H139.43V82.2915Z" fill="black"/>
<path d="M139.43 98.5922H143.505V102.667H139.43V98.5922Z" fill="black"/>
<path d="M139.43 106.743H143.505V110.818H139.43V106.743Z" fill="black"/>
<path d="M139.43 118.969H143.505V123.044H139.43V118.969Z" fill="black"/>
<path d="M139.43 123.044H143.505V127.119H139.43V123.044Z" fill="black"/>
<path d="M139.43 127.119H143.505V131.194H139.43V127.119Z" fill="black"/>
<path d="M139.43 139.345H143.505V143.42H139.43V139.345Z" fill="black"/>
<path d="M139.43 151.57H143.505V155.646H139.43V151.57Z" fill="black"/>
<path d="M139.43 163.796H143.505V167.872H139.43V163.796Z" fill="black"/>
<path d="M139.43 204.549H143.505V208.624H139.43V204.549Z" fill="black"/>
<path d="M139.43 220.85H143.505V224.925H139.43V220.85Z" fill="black"/>
<path d="M143.505 65.9902H147.58V70.0654H143.505V65.9902Z" fill="black"/>
<path d="M143.505 74.1411H147.58V78.2163H143.505V74.1411Z" fill="black"/>
<path d="M143.505 86.3667H147.58V90.4419H143.505V86.3667Z" fill="black"/>
<path d="M143.505 90.4418H147.58V94.5171H143.505V90.4418Z" fill="black"/>
<path d="M143.505 102.667H147.58V106.743H143.505V102.667Z" fill="black"/>
<path d="M143.505 114.894H147.58V118.969H143.505V114.894Z" fill="black"/>
<path d="M143.505 123.044H147.58V127.119H143.505V123.044Z" fill="black"/>
<path d="M143.505 135.269H147.58V139.345H143.505V135.269Z" fill="black"/>
<path d="M143.505 143.42H147.58V147.495H143.505V143.42Z" fill="black"/>
<path d="M143.505 147.495H147.58V151.57H143.505V147.495Z" fill="black"/>
<path d="M143.505 155.645H147.58V159.721H143.505V155.645Z" fill="black"/>
<path d="M143.505 159.721H147.58V163.796H143.505V159.721Z" fill="black"/>
<path d="M143.505 167.872H147.58V171.947H143.505V167.872Z" fill="black"/>
<path d="M143.505 171.947H147.58V176.022H143.505V171.947Z" fill="black"/>
<path d="M143.505 176.022H147.58V180.097H143.505V176.022Z" fill="black"/>
<path d="M143.505 184.172H147.58V188.248H143.505V184.172Z" fill="black"/>
<path d="M143.505 200.473H147.58V204.548H143.505V200.473Z" fill="black"/>
<path d="M143.505 208.624H147.58V212.699H143.505V208.624Z" fill="black"/>
<path d="M143.505 212.699H147.58V216.774H143.505V212.699Z" fill="black"/>
<path d="M143.505 216.774H147.58V220.85H143.505V216.774Z" fill="black"/>
<path d="M147.58 74.1411H151.655V78.2163H147.58V74.1411Z" fill="black"/>
<path d="M147.58 78.2163H151.655V82.2915H147.58V78.2163Z" fill="black"/>
<path d="M147.58 90.4418H151.655V94.5171H147.58V90.4418Z" fill="black"/>
<path d="M147.58 94.517H151.655V98.5923H147.58V94.517Z" fill="black"/>
<path d="M147.58 98.5922H151.655V102.667H147.58V98.5922Z" fill="black"/>
<path d="M147.58 106.743H151.655V110.818H147.58V106.743Z" fill="black"/>
<path d="M147.58 110.818H151.655V114.893H147.58V110.818Z" fill="black"/>
<path d="M147.58 114.894H151.655V118.969H147.58V114.894Z" fill="black"/>
<path d="M147.58 123.044H151.655V127.119H147.58V123.044Z" fill="black"/>
<path d="M147.58 127.119H151.655V131.194H147.58V127.119Z" fill="black"/>
<path d="M147.58 131.194H151.655V135.27H147.58V131.194Z" fill="black"/>
<path d="M147.58 135.269H151.655V139.345H147.58V135.269Z" fill="black"/>
<path d="M147.58 139.345H151.655V143.42H147.58V139.345Z" fill="black"/>
<path d="M147.58 143.42H151.655V147.495H147.58V143.42Z" fill="black"/>
<path d="M147.58 147.495H151.655V151.57H147.58V147.495Z" fill="black"/>
<path d="M147.58 163.796H151.655V167.872H147.58V163.796Z" fill="black"/>
<path d="M147.58 167.872H151.655V171.947H147.58V167.872Z" fill="black"/>
<path d="M147.58 171.947H151.655V176.022H147.58V171.947Z" fill="black"/>
<path d="M147.58 180.097H151.655V184.172H147.58V180.097Z" fill="black"/>
<path d="M147.58 188.248H151.655V192.323H147.58V188.248Z" fill="black"/>
<path d="M147.58 192.323H151.655V196.398H147.58V192.323Z" fill="black"/>
<path d="M147.58 208.624H151.655V212.699H147.58V208.624Z" fill="black"/>
<path d="M147.58 212.699H151.655V216.774H147.58V212.699Z" fill="black"/>
<path d="M147.58 216.774H151.655V220.85H147.58V216.774Z" fill="black"/>
<path d="M147.58 220.85H151.655V224.925H147.58V220.85Z" fill="black"/>
<path d="M151.655 65.9902H155.731V70.0654H151.655V65.9902Z" fill="black"/>
<path d="M151.655 74.1411H155.731V78.2163H151.655V74.1411Z" fill="black"/>
<path d="M151.655 82.2915H155.731V86.3667H151.655V82.2915Z" fill="black"/>
<path d="M151.655 86.3667H155.731V90.4419H151.655V86.3667Z" fill="black"/>
<path d="M151.655 90.4418H155.731V94.5171H151.655V90.4418Z" fill="black"/>
<path d="M151.655 94.517H155.731V98.5923H151.655V94.517Z" fill="black"/>
<path d="M151.655 98.5922H155.731V102.667H151.655V98.5922Z" fill="black"/>
<path d="M151.655 106.743H155.731V110.818H151.655V106.743Z" fill="black"/>
<path d="M151.655 114.894H155.731V118.969H151.655V114.894Z" fill="black"/>
<path d="M151.655 123.044H155.731V127.119H151.655V123.044Z" fill="black"/>
<path d="M151.655 139.345H155.731V143.42H151.655V139.345Z" fill="black"/>
<path d="M151.655 147.495H155.731V151.57H151.655V147.495Z" fill="black"/>
<path d="M151.655 159.721H155.731V163.796H151.655V159.721Z" fill="black"/>
<path d="M151.655 163.796H155.731V167.872H151.655V163.796Z" fill="black"/>
<path d="M151.655 167.872H155.731V171.947H151.655V167.872Z" fill="black"/>
<path d="M151.655 171.947H155.731V176.022H151.655V171.947Z" fill="black"/>
<path d="M151.655 180.097H155.731V184.172H151.655V180.097Z" fill="black"/>
<path d="M151.655 188.248H155.731V192.323H151.655V188.248Z" fill="black"/>
<path d="M151.655 200.473H155.731V204.548H151.655V200.473Z" fill="black"/>
<path d="M151.655 208.624H155.731V212.699H151.655V208.624Z" fill="black"/>
<path d="M151.655 216.774H155.731V220.85H151.655V216.774Z" fill="black"/>
<path d="M155.731 70.0659H159.806V74.1411H155.731V70.0659Z" fill="black"/>
<path d="M155.731 98.5922H159.806V102.667H155.731V98.5922Z" fill="black"/>
<path d="M155.731 106.743H159.806V110.818H155.731V106.743Z" fill="black"/>
<path d="M155.731 139.345H159.806V143.42H155.731V139.345Z" fill="black"/>
<path d="M155.731 163.796H159.806V167.872H155.731V163.796Z" fill="black"/>
<path d="M155.731 167.872H159.806V171.947H155.731V167.872Z" fill="black"/>
<path d="M155.731 171.947H159.806V176.022H155.731V171.947Z" fill="black"/>
<path d="M155.731 184.172H159.806V188.248H155.731V184.172Z" fill="black"/>
<path d="M155.731 188.248H159.806V192.323H155.731V188.248Z" fill="black"/>
<path d="M155.731 192.323H159.806V196.398H155.731V192.323Z" fill="black"/>
<path d="M155.731 204.549H159.806V208.624H155.731V204.549Z" fill="black"/>
<path d="M155.731 220.85H159.806V224.925H155.731V220.85Z" fill="black"/>
<path d="M159.806 61.915H163.881V65.9902H159.806V61.915Z" fill="black"/>
<path d="M159.806 70.0659H163.881V74.1411H159.806V70.0659Z" fill="black"/>
<path d="M159.806 74.1411H163.881V78.2163H159.806V74.1411Z" fill="black"/>
<path d="M159.806 86.3667H163.881V90.4419H159.806V86.3667Z" fill="black"/>
<path d="M159.806 94.517H163.881V98.5923H159.806V94.517Z" fill="black"/>
<path d="M159.806 98.5922H163.881V102.667H159.806V98.5922Z" fill="black"/>
<path d="M159.806 114.894H163.881V118.969H159.806V114.894Z" fill="black"/>
<path d="M159.806 123.044H163.881V127.119H159.806V123.044Z" fill="black"/>
<path d="M159.806 127.119H163.881V131.194H159.806V127.119Z" fill="black"/>
<path d="M159.806 131.194H163.881V135.27H159.806V131.194Z" fill="black"/>
<path d="M159.806 139.345H163.881V143.42H159.806V139.345Z" fill="black"/>
<path d="M159.806 143.42H163.881V147.495H159.806V143.42Z" fill="black"/>
<path d="M159.806 147.495H163.881V151.57H159.806V147.495Z" fill="black"/>
<path d="M159.806 159.721H163.881V163.796H159.806V159.721Z" fill="black"/>
<path d="M159.806 167.872H163.881V171.947H159.806V167.872Z" fill="black"/>
<path d="M159.806 171.947H163.881V176.022H159.806V171.947Z" fill="black"/>
<path d="M159.806 176.022H163.881V180.097H159.806V176.022Z" fill="black"/>
<path d="M159.806 184.172H163.881V188.248H159.806V184.172Z" fill="black"/>
<path d="M159.806 192.323H163.881V196.398H159.806V192.323Z" fill="black"/>
<path d="M159.806 196.398H163.881V200.473H159.806V196.398Z" fill="black"/>
<path d="M159.806 204.549H163.881V208.624H159.806V204.549Z" fill="black"/>
<path d="M159.806 208.624H163.881V212.699H159.806V208.624Z" fill="black"/>
<path d="M159.806 220.85H163.881V224.925H159.806V220.85Z" fill="black"/>
<path d="M163.881 82.2915H167.956V86.3667H163.881V82.2915Z" fill="black"/>
<path d="M163.881 94.517H167.956V98.5923H163.881V94.517Z" fill="black"/>
<path d="M163.881 110.818H167.956V114.893H163.881V110.818Z" fill="black"/>
<path d="M163.881 118.969H167.956V123.044H163.881V118.969Z" fill="black"/>
<path d="M163.881 131.194H167.956V135.27H163.881V131.194Z" fill="black"/>
<path d="M163.881 135.269H167.956V139.345H163.881V135.269Z" fill="black"/>
<path d="M163.881 139.345H167.956V143.42H163.881V139.345Z" fill="black"/>
<path d="M163.881 151.57H167.956V155.646H163.881V151.57Z" fill="black"/>
<path d="M163.881 171.947H167.956V176.022H163.881V171.947Z" fill="black"/>
<path d="M163.881 184.172H167.956V188.248H163.881V184.172Z" fill="black"/>
<path d="M163.881 216.774H167.956V220.85H163.881V216.774Z" fill="black"/>
<path d="M163.881 220.85H167.956V224.925H163.881V220.85Z" fill="black"/>
<path d="M163.881 224.925H167.956V229H163.881V224.925Z" fill="black"/>
<path d="M167.956 61.915H172.031V65.9902H167.956V61.915Z" fill="black"/>
<path d="M167.956 70.0659H172.031V74.1411H167.956V70.0659Z" fill="black"/>
<path d="M167.956 78.2163H172.031V82.2915H167.956V78.2163Z" fill="black"/>
<path d="M167.956 82.2915H172.031V86.3667H167.956V82.2915Z" fill="black"/>
<path d="M167.956 86.3667H172.031V90.4419H167.956V86.3667Z" fill="black"/>
<path d="M167.956 90.4418H172.031V94.5171H167.956V90.4418Z" fill="black"/>
<path d="M167.956 98.5922H172.031V102.667H167.956V98.5922Z" fill="black"/>
<path d="M167.956 102.667H172.031V106.743H167.956V102.667Z" fill="black"/>
<path d="M167.956 106.743H172.031V110.818H167.956V106.743Z" fill="black"/>
<path d="M167.956 110.818H172.031V114.893H167.956V110.818Z" fill="black"/>
<path d="M167.956 123.044H172.031V127.119H167.956V123.044Z" fill="black"/>
<path d="M167.956 135.269H172.031V139.345H167.956V135.269Z" fill="black"/>
<path d="M167.956 143.42H172.031V147.495H167.956V143.42Z" fill="black"/>
<path d="M167.956 151.57H172.031V155.646H167.956V151.57Z" fill="black"/>
<path d="M167.956 155.645H172.031V159.721H167.956V155.645Z" fill="black"/>
<path d="M167.956 167.872H172.031V171.947H167.956V167.872Z" fill="black"/>
<path d="M167.956 180.097H172.031V184.172H167.956V180.097Z" fill="black"/>
<path d="M167.956 188.248H172.031V192.323H167.956V188.248Z" fill="black"/>
<path d="M167.956 204.549H172.031V208.624H167.956V204.549Z" fill="black"/>
<path d="M167.956 212.699H172.031V216.774H167.956V212.699Z" fill="black"/>
<path d="M167.956 216.774H172.031V220.85H167.956V216.774Z" fill="black"/>
<path d="M172.031 61.915H176.107V65.9902H172.031V61.915Z" fill="black"/>
<path d="M172.031 65.9902H176.107V70.0654H172.031V65.9902Z" fill="black"/>
<path d="M172.031 74.1411H176.107V78.2163H172.031V74.1411Z" fill="black"/>
<path d="M172.031 78.2163H176.107V82.2915H172.031V78.2163Z" fill="black"/>
<path d="M172.031 94.517H176.107V98.5923H172.031V94.517Z" fill="black"/>
<path d="M172.031 110.818H176.107V114.893H172.031V110.818Z" fill="black"/>
<path d="M172.031 114.894H176.107V118.969H172.031V114.894Z" fill="black"/>
<path d="M172.031 131.194H176.107V135.27H172.031V131.194Z" fill="black"/>
<path d="M172.031 143.42H176.107V147.495H172.031V143.42Z" fill="black"/>
<path d="M172.031 147.495H176.107V151.57H172.031V147.495Z" fill="black"/>
<path d="M172.031 151.57H176.107V155.646H172.031V151.57Z" fill="black"/>
<path d="M172.031 155.645H176.107V159.721H172.031V155.645Z" fill="black"/>
<path d="M172.031 159.721H176.107V163.796H172.031V159.721Z" fill="black"/>
<path d="M172.031 176.022H176.107V180.097H172.031V176.022Z" fill="black"/>
<path d="M172.031 180.097H176.107V184.172H172.031V180.097Z" fill="black"/>
<path d="M172.031 184.172H176.107V188.248H172.031V184.172Z" fill="black"/>
<path d="M172.031 188.248H176.107V192.323H172.031V188.248Z" fill="black"/>
<path d="M172.031 192.323H176.107V196.398H172.031V192.323Z" fill="black"/>
<path d="M172.031 208.624H176.107V212.699H172.031V208.624Z" fill="black"/>
<path d="M172.031 216.774H176.107V220.85H172.031V216.774Z" fill="black"/>
<path d="M172.031 220.85H176.107V224.925H172.031V220.85Z" fill="black"/>
<path d="M172.031 224.925H176.107V229H172.031V224.925Z" fill="black"/>
<path d="M176.107 65.9902H180.182V70.0654H176.107V65.9902Z" fill="black"/>
<path d="M176.107 74.1411H180.182V78.2163H176.107V74.1411Z" fill="black"/>
<path d="M176.107 82.2915H180.182V86.3667H176.107V82.2915Z" fill="black"/>
<path d="M176.107 86.3667H180.182V90.4419H176.107V86.3667Z" fill="black"/>
<path d="M176.107 98.5922H180.182V102.667H176.107V98.5922Z" fill="black"/>
<path d="M176.107 106.743H180.182V110.818H176.107V106.743Z" fill="black"/>
<path d="M176.107 114.894H180.182V118.969H176.107V114.894Z" fill="black"/>
<path d="M176.107 123.044H180.182V127.119H176.107V123.044Z" fill="black"/>
<path d="M176.107 127.119H180.182V131.194H176.107V127.119Z" fill="black"/>
<path d="M176.107 131.194H180.182V135.27H176.107V131.194Z" fill="black"/>
<path d="M176.107 135.269H180.182V139.345H176.107V135.269Z" fill="black"/>
<path d="M176.107 143.42H180.182V147.495H176.107V143.42Z" fill="black"/>
<path d="M176.107 151.57H180.182V155.646H176.107V151.57Z" fill="black"/>
<path d="M176.107 155.645H180.182V159.721H176.107V155.645Z" fill="black"/>
<path d="M176.107 163.796H180.182V167.872H176.107V163.796Z" fill="black"/>
<path d="M176.107 176.022H180.182V180.097H176.107V176.022Z" fill="black"/>
<path d="M176.107 184.172H180.182V188.248H176.107V184.172Z" fill="black"/>
<path d="M176.107 192.323H180.182V196.398H176.107V192.323Z" fill="black"/>
<path d="M176.107 204.549H180.182V208.624H176.107V204.549Z" fill="black"/>
<path d="M176.107 208.624H180.182V212.699H176.107V208.624Z" fill="black"/>
<path d="M176.107 212.699H180.182V216.774H176.107V212.699Z" fill="black"/>
<path d="M176.107 220.85H180.182V224.925H176.107V220.85Z" fill="black"/>
<path d="M180.182 61.915H184.257V65.9902H180.182V61.915Z" fill="black"/>
<path d="M180.182 65.9902H184.257V70.0654H180.182V65.9902Z" fill="black"/>
<path d="M180.182 70.0659H184.257V74.1411H180.182V70.0659Z" fill="black"/>
<path d="M180.182 82.2915H184.257V86.3667H180.182V82.2915Z" fill="black"/>
<path d="M180.182 90.4418H184.257V94.5171H180.182V90.4418Z" fill="black"/>
<path d="M180.182 94.517H184.257V98.5923H180.182V94.517Z" fill="black"/>
<path d="M180.182 118.969H184.257V123.044H180.182V118.969Z" fill="black"/>
<path d="M180.182 151.57H184.257V155.646H180.182V151.57Z" fill="black"/>
<path d="M180.182 167.872H184.257V171.947H180.182V167.872Z" fill="black"/>
<path d="M180.182 171.947H184.257V176.022H180.182V171.947Z" fill="black"/>
<path d="M180.182 184.172H184.257V188.248H180.182V184.172Z" fill="black"/>
<path d="M180.182 188.248H184.257V192.323H180.182V188.248Z" fill="black"/>
<path d="M180.182 192.323H184.257V196.398H180.182V192.323Z" fill="black"/>
<path d="M180.182 196.398H184.257V200.473H180.182V196.398Z" fill="black"/>
<path d="M180.182 200.473H184.257V204.548H180.182V200.473Z" fill="black"/>
<path d="M180.182 204.549H184.257V208.624H180.182V204.549Z" fill="black"/>
<path d="M180.182 216.774H184.257V220.85H180.182V216.774Z" fill="black"/>
<path d="M180.182 224.925H184.257V229H180.182V224.925Z" fill="black"/>
<path d="M184.257 61.915H188.332V65.9902H184.257V61.915Z" fill="black"/>
<path d="M184.257 70.0659H188.332V74.1411H184.257V70.0659Z" fill="black"/>
<path d="M184.257 78.2163H188.332V82.2915H184.257V78.2163Z" fill="black"/>
<path d="M184.257 82.2915H188.332V86.3667H184.257V82.2915Z" fill="black"/>
<path d="M184.257 86.3667H188.332V90.4419H184.257V86.3667Z" fill="black"/>
<path d="M184.257 90.4418H188.332V94.5171H184.257V90.4418Z" fill="black"/>
<path d="M184.257 106.743H188.332V110.818H184.257V106.743Z" fill="black"/>
<path d="M184.257 110.818H188.332V114.893H184.257V110.818Z" fill="black"/>
<path d="M184.257 123.044H188.332V127.119H184.257V123.044Z" fill="black"/>
<path d="M184.257 127.119H188.332V131.194H184.257V127.119Z" fill="black"/>
<path d="M184.257 135.269H188.332V139.345H184.257V135.269Z" fill="black"/>
<path d="M184.257 143.42H188.332V147.495H184.257V143.42Z" fill="black"/>
<path d="M184.257 159.721H188.332V163.796H184.257V159.721Z" fill="black"/>
<path d="M184.257 167.872H188.332V171.947H184.257V167.872Z" fill="black"/>
<path d="M184.257 176.022H188.332V180.097H184.257V176.022Z" fill="black"/>
<path d="M184.257 188.248H188.332V192.323H184.257V188.248Z" fill="black"/>
<path d="M184.257 196.398H188.332V200.473H184.257V196.398Z" fill="black"/>
<path d="M184.257 204.549H188.332V208.624H184.257V204.549Z" fill="black"/>
<path d="M184.257 212.699H188.332V216.774H184.257V212.699Z" fill="black"/>
<path d="M184.257 224.925H188.332V229H184.257V224.925Z" fill="black"/>
<path d="M188.332 61.915H192.408V65.9902H188.332V61.915Z" fill="black"/>
<path d="M188.332 70.0659H192.408V74.1411H188.332V70.0659Z" fill="black"/>
<path d="M188.332 82.2915H192.408V86.3667H188.332V82.2915Z" fill="black"/>
<path d="M188.332 90.4418H192.408V94.5171H188.332V90.4418Z" fill="black"/>
<path d="M188.332 98.5922H192.408V102.667H188.332V98.5922Z" fill="black"/>
<path d="M188.332 102.667H192.408V106.743H188.332V102.667Z" fill="black"/>
<path d="M188.332 106.743H192.408V110.818H188.332V106.743Z" fill="black"/>
<path d="M188.332 131.194H192.408V135.27H188.332V131.194Z" fill="black"/>
<path d="M188.332 139.345H192.408V143.42H188.332V139.345Z" fill="black"/>
<path d="M188.332 155.645H192.408V159.721H188.332V155.645Z" fill="black"/>
<path d="M188.332 163.796H192.408V167.872H188.332V163.796Z" fill="black"/>
<path d="M188.332 167.872H192.408V171.947H188.332V167.872Z" fill="black"/>
<path d="M188.332 171.947H192.408V176.022H188.332V171.947Z" fill="black"/>
<path d="M188.332 188.248H192.408V192.323H188.332V188.248Z" fill="black"/>
<path d="M188.332 196.398H192.408V200.473H188.332V196.398Z" fill="black"/>
<path d="M188.332 212.699H192.408V216.774H188.332V212.699Z" fill="black"/>
<path d="M188.332 220.85H192.408V224.925H188.332V220.85Z" fill="black"/>
<path d="M192.408 70.0659H196.483V74.1411H192.408V70.0659Z" fill="black"/>
<path d="M192.408 74.1411H196.483V78.2163H192.408V74.1411Z" fill="black"/>
<path d="M192.408 82.2915H196.483V86.3667H192.408V82.2915Z" fill="black"/>
<path d="M192.408 86.3667H196.483V90.4419H192.408V86.3667Z" fill="black"/>
<path d="M192.408 94.517H196.483V98.5923H192.408V94.517Z" fill="black"/>
<path d="M192.408 98.5922H196.483V102.667H192.408V98.5922Z" fill="black"/>
<path d="M192.408 131.194H196.483V135.27H192.408V131.194Z" fill="black"/>
<path d="M192.408 151.57H196.483V155.646H192.408V151.57Z" fill="black"/>
<path d="M192.408 167.872H196.483V171.947H192.408V167.872Z" fill="black"/>
<path d="M192.408 184.172H196.483V188.248H192.408V184.172Z" fill="black"/>
<path d="M192.408 192.323H196.483V196.398H192.408V192.323Z" fill="black"/>
<path d="M192.408 196.398H196.483V200.473H192.408V196.398Z" fill="black"/>
<path d="M192.408 200.473H196.483V204.548H192.408V200.473Z" fill="black"/>
<path d="M192.408 204.549H196.483V208.624H192.408V204.549Z" fill="black"/>
<path d="M192.408 208.624H196.483V212.699H192.408V208.624Z" fill="black"/>
<path d="M192.408 212.699H196.483V216.774H192.408V212.699Z" fill="black"/>
<path d="M196.483 102.667H200.558V106.743H196.483V102.667Z" fill="black"/>
<path d="M196.483 127.119H200.558V131.194H196.483V127.119Z" fill="black"/>
<path d="M196.483 131.194H200.558V135.27H196.483V131.194Z" fill="black"/>
<path d="M196.483 147.495H200.558V151.57H196.483V147.495Z" fill="black"/>
<path d="M196.483 151.57H200.558V155.646H196.483V151.57Z" fill="black"/>
<path d="M196.483 159.721H200.558V163.796H196.483V159.721Z" fill="black"/>
<path d="M196.483 163.796H200.558V167.872H196.483V163.796Z" fill="black"/>
<path d="M196.483 171.947H200.558V176.022H196.483V171.947Z" fill="black"/>
<path d="M196.483 176.022H200.558V180.097H196.483V176.022Z" fill="black"/>
<path d="M196.483 192.323H200.558V196.398H196.483V192.323Z" fill="black"/>
<path d="M196.483 208.624H200.558V212.699H196.483V208.624Z" fill="black"/>
<path d="M196.483 212.699H200.558V216.774H196.483V212.699Z" fill="black"/>
<path d="M196.483 220.85H200.558V224.925H196.483V220.85Z" fill="black"/>
<path d="M200.558 61.915H204.633V65.9902H200.558V61.915Z" fill="black"/>
<path d="M200.558 65.9902H204.633V70.0654H200.558V65.9902Z" fill="black"/>
<path d="M200.558 70.0659H204.633V74.1411H200.558V70.0659Z" fill="black"/>
<path d="M200.558 74.1411H204.633V78.2163H200.558V74.1411Z" fill="black"/>
<path d="M200.558 78.2163H204.633V82.2915H200.558V78.2163Z" fill="black"/>
<path d="M200.558 82.2915H204.633V86.3667H200.558V82.2915Z" fill="black"/>
<path d="M200.558 86.3667H204.633V90.4419H200.558V86.3667Z" fill="black"/>
<path d="M200.558 94.517H204.633V98.5923H200.558V94.517Z" fill="black"/>
<path d="M200.558 106.743H204.633V110.818H200.558V106.743Z" fill="black"/>
<path d="M200.558 114.894H204.633V118.969H200.558V114.894Z" fill="black"/>
<path d="M200.558 123.044H204.633V127.119H200.558V123.044Z" fill="black"/>
<path d="M200.558 155.645H204.633V159.721H200.558V155.645Z" fill="black"/>
<path d="M200.558 188.248H204.633V192.323H200.558V188.248Z" fill="black"/>
<path d="M200.558 192.323H204.633V196.398H200.558V192.323Z" fill="black"/>
<path d="M200.558 200.473H204.633V204.548H200.558V200.473Z" fill="black"/>
<path d="M200.558 208.624H204.633V212.699H200.558V208.624Z" fill="black"/>
<path d="M200.558 216.774H204.633V220.85H200.558V216.774Z" fill="black"/>
<path d="M200.558 224.925H204.633V229H200.558V224.925Z" fill="black"/>
<path d="M204.633 61.915H208.709V65.9902H204.633V61.915Z" fill="black"/>
<path d="M204.633 86.3667H208.709V90.4419H204.633V86.3667Z" fill="black"/>
<path d="M204.633 94.517H208.709V98.5923H204.633V94.517Z" fill="black"/>
<path d="M204.633 98.5922H208.709V102.667H204.633V98.5922Z" fill="black"/>
<path d="M204.633 102.667H208.709V106.743H204.633V102.667Z" fill="black"/>
<path d="M204.633 110.818H208.709V114.893H204.633V110.818Z" fill="black"/>
<path d="M204.633 123.044H208.709V127.119H204.633V123.044Z" fill="black"/>
<path d="M204.633 131.194H208.709V135.27H204.633V131.194Z" fill="black"/>
<path d="M204.633 135.269H208.709V139.345H204.633V135.269Z" fill="black"/>
<path d="M204.633 139.345H208.709V143.42H204.633V139.345Z" fill="black"/>
<path d="M204.633 151.57H208.709V155.646H204.633V151.57Z" fill="black"/>
<path d="M204.633 159.721H208.709V163.796H204.633V159.721Z" fill="black"/>
<path d="M204.633 163.796H208.709V167.872H204.633V163.796Z" fill="black"/>
<path d="M204.633 171.947H208.709V176.022H204.633V171.947Z" fill="black"/>
<path d="M204.633 176.022H208.709V180.097H204.633V176.022Z" fill="black"/>
<path d="M204.633 180.097H208.709V184.172H204.633V180.097Z" fill="black"/>
<path d="M204.633 188.248H208.709V192.323H204.633V188.248Z" fill="black"/>
<path d="M204.633 192.323H208.709V196.398H204.633V192.323Z" fill="black"/>
<path d="M204.633 208.624H208.709V212.699H204.633V208.624Z" fill="black"/>
<path d="M204.633 216.774H208.709V220.85H204.633V216.774Z" fill="black"/>
<path d="M204.633 220.85H208.709V224.925H204.633V220.85Z" fill="black"/>
<path d="M204.633 224.925H208.709V229H204.633V224.925Z" fill="black"/>
<path d="M208.709 61.915H212.784V65.9902H208.709V61.915Z" fill="black"/>
<path d="M208.709 70.0659H212.784V74.1411H208.709V70.0659Z" fill="black"/>
<path d="M208.709 74.1411H212.784V78.2163H208.709V74.1411Z" fill="black"/>
<path d="M208.709 78.2163H212.784V82.2915H208.709V78.2163Z" fill="black"/>
<path d="M208.709 86.3667H212.784V90.4419H208.709V86.3667Z" fill="black"/>
<path d="M208.709 94.517H212.784V98.5923H208.709V94.517Z" fill="black"/>
<path d="M208.709 106.743H212.784V110.818H208.709V106.743Z" fill="black"/>
<path d="M208.709 110.818H212.784V114.893H208.709V110.818Z" fill="black"/>
<path d="M208.709 118.969H212.784V123.044H208.709V118.969Z" fill="black"/>
<path d="M208.709 123.044H212.784V127.119H208.709V123.044Z" fill="black"/>
<path d="M208.709 127.119H212.784V131.194H208.709V127.119Z" fill="black"/>
<path d="M208.709 131.194H212.784V135.27H208.709V131.194Z" fill="black"/>
<path d="M208.709 139.345H212.784V143.42H208.709V139.345Z" fill="black"/>
<path d="M208.709 147.495H212.784V151.57H208.709V147.495Z" fill="black"/>
<path d="M208.709 155.645H212.784V159.721H208.709V155.645Z" fill="black"/>
<path d="M208.709 159.721H212.784V163.796H208.709V159.721Z" fill="black"/>
<path d="M208.709 163.796H212.784V167.872H208.709V163.796Z" fill="black"/>
<path d="M208.709 171.947H212.784V176.022H208.709V171.947Z" fill="black"/>
<path d="M208.709 180.097H212.784V184.172H208.709V180.097Z" fill="black"/>
<path d="M208.709 184.172H212.784V188.248H208.709V184.172Z" fill="black"/>
<path d="M208.709 188.248H212.784V192.323H208.709V188.248Z" fill="black"/>
<path d="M208.709 192.323H212.784V196.398H208.709V192.323Z" fill="black"/>
<path d="M208.709 196.398H212.784V200.473H208.709V196.398Z" fill="black"/>
<path d="M208.709 200.473H212.784V204.548H208.709V200.473Z" fill="black"/>
<path d="M208.709 204.549H212.784V208.624H208.709V204.549Z" fill="black"/>
<path d="M208.709 208.624H212.784V212.699H208.709V208.624Z" fill="black"/>
<path d="M208.709 212.699H212.784V216.774H208.709V212.699Z" fill="black"/>
<path d="M208.709 216.774H212.784V220.85H208.709V216.774Z" fill="black"/>
<path d="M208.709 224.925H212.784V229H208.709V224.925Z" fill="black"/>
<path d="M212.784 61.915H216.859V65.9902H212.784V61.915Z" fill="black"/>
<path d="M212.784 70.0659H216.859V74.1411H212.784V70.0659Z" fill="black"/>
<path d="M212.784 74.1411H216.859V78.2163H212.784V74.1411Z" fill="black"/>
<path d="M212.784 78.2163H216.859V82.2915H212.784V78.2163Z" fill="black"/>
<path d="M212.784 86.3667H216.859V90.4419H212.784V86.3667Z" fill="black"/>
<path d="M212.784 94.517H216.859V98.5923H212.784V94.517Z" fill="black"/>
<path d="M212.784 98.5922H216.859V102.667H212.784V98.5922Z" fill="black"/>
<path d="M212.784 102.667H216.859V106.743H212.784V102.667Z" fill="black"/>
<path d="M212.784 106.743H216.859V110.818H212.784V106.743Z" fill="black"/>
<path d="M212.784 114.894H216.859V118.969H212.784V114.894Z" fill="black"/>
<path d="M212.784 118.969H216.859V123.044H212.784V118.969Z" fill="black"/>
<path d="M212.784 123.044H216.859V127.119H212.784V123.044Z" fill="black"/>
<path d="M212.784 127.119H216.859V131.194H212.784V127.119Z" fill="black"/>
<path d="M212.784 131.194H216.859V135.27H212.784V131.194Z" fill="black"/>
<path d="M212.784 135.269H216.859V139.345H212.784V135.269Z" fill="black"/>
<path d="M212.784 143.42H216.859V147.495H212.784V143.42Z" fill="black"/>
<path d="M212.784 147.495H216.859V151.57H212.784V147.495Z" fill="black"/>
<path d="M212.784 159.721H216.859V163.796H212.784V159.721Z" fill="black"/>
<path d="M212.784 163.796H216.859V167.872H212.784V163.796Z" fill="black"/>
<path d="M212.784 180.097H216.859V184.172H212.784V180.097Z" fill="black"/>
<path d="M212.784 196.398H216.859V200.473H212.784V196.398Z" fill="black"/>
<path d="M212.784 200.473H216.859V204.548H212.784V200.473Z" fill="black"/>
<path d="M212.784 216.774H216.859V220.85H212.784V216.774Z" fill="black"/>
<path d="M212.784 220.85H216.859V224.925H212.784V220.85Z" fill="black"/>
<path d="M212.784 224.925H216.859V229H212.784V224.925Z" fill="black"/>
<path d="M216.859 61.915H220.934V65.9902H216.859V61.915Z" fill="black"/>
<path d="M216.859 70.0659H220.934V74.1411H216.859V70.0659Z" fill="black"/>
<path d="M216.859 74.1411H220.934V78.2163H216.859V74.1411Z" fill="black"/>
<path d="M216.859 78.2163H220.934V82.2915H216.859V78.2163Z" fill="black"/>
<path d="M216.859 86.3667H220.934V90.4419H216.859V86.3667Z" fill="black"/>
<path d="M216.859 94.517H220.934V98.5923H216.859V94.517Z" fill="black"/>
<path d="M216.859 110.818H220.934V114.893H216.859V110.818Z" fill="black"/>
<path d="M216.859 135.269H220.934V139.345H216.859V135.269Z" fill="black"/>
<path d="M216.859 139.345H220.934V143.42H216.859V139.345Z" fill="black"/>
<path d="M216.859 151.57H220.934V155.646H216.859V151.57Z" fill="black"/>
<path d="M216.859 159.721H220.934V163.796H216.859V159.721Z" fill="black"/>
<path d="M216.859 167.872H220.934V171.947H216.859V167.872Z" fill="black"/>
<path d="M216.859 171.947H220.934V176.022H216.859V171.947Z" fill="black"/>
<path d="M216.859 188.248H220.934V192.323H216.859V188.248Z" fill="black"/>
<path d="M216.859 192.323H220.934V196.398H216.859V192.323Z" fill="black"/>
<path d="M216.859 200.473H220.934V204.548H216.859V200.473Z" fill="black"/>
<path d="M216.859 216.774H220.934V220.85H216.859V216.774Z" fill="black"/>
<path d="M216.859 220.85H220.934V224.925H216.859V220.85Z" fill="black"/>
<path d="M220.934 61.915H225.01V65.9902H220.934V61.915Z" fill="black"/>
<path d="M220.934 86.3667H225.01V90.4419H220.934V86.3667Z" fill="black"/>
<path d="M220.934 98.5922H225.01V102.667H220.934V98.5922Z" fill="black"/>
<path d="M220.934 102.667H225.01V106.743H220.934V102.667Z" fill="black"/>
<path d="M220.934 114.894H225.01V118.969H220.934V114.894Z" fill="black"/>
<path d="M220.934 131.194H225.01V135.27H220.934V131.194Z" fill="black"/>
<path d="M220.934 143.42H225.01V147.495H220.934V143.42Z" fill="black"/>
<path d="M220.934 147.495H225.01V151.57H220.934V147.495Z" fill="black"/>
<path d="M220.934 155.645H225.01V159.721H220.934V155.645Z" fill="black"/>
<path d="M220.934 159.721H225.01V163.796H220.934V159.721Z" fill="black"/>
<path d="M220.934 167.872H225.01V171.947H220.934V167.872Z" fill="black"/>
<path d="M220.934 171.947H225.01V176.022H220.934V171.947Z" fill="black"/>
<path d="M220.934 192.323H225.01V196.398H220.934V192.323Z" fill="black"/>
<path d="M220.934 196.398H225.01V200.473H220.934V196.398Z" fill="black"/>
<path d="M220.934 200.473H225.01V204.548H220.934V200.473Z" fill="black"/>
<path d="M220.934 208.624H225.01V212.699H220.934V208.624Z" fill="black"/>
<path d="M220.934 216.774H225.01V220.85H220.934V216.774Z" fill="black"/>
<path d="M225.01 61.915H229.085V65.9902H225.01V61.915Z" fill="black"/>
<path d="M225.01 65.9902H229.085V70.0654H225.01V65.9902Z" fill="black"/>
<path d="M225.01 70.0659H229.085V74.1411H225.01V70.0659Z" fill="black"/>
<path d="M225.01 74.1411H229.085V78.2163H225.01V74.1411Z" fill="black"/>
<path d="M225.01 78.2163H229.085V82.2915H225.01V78.2163Z" fill="black"/>
<path d="M225.01 82.2915H229.085V86.3667H225.01V82.2915Z" fill="black"/>
<path d="M225.01 86.3667H229.085V90.4419H225.01V86.3667Z" fill="black"/>
<path d="M225.01 98.5922H229.085V102.667H225.01V98.5922Z" fill="black"/>
<path d="M225.01 106.743H229.085V110.818H225.01V106.743Z" fill="black"/>
<path d="M225.01 123.044H229.085V127.119H225.01V123.044Z" fill="black"/>
<path d="M225.01 131.194H229.085V135.27H225.01V131.194Z" fill="black"/>
<path d="M225.01 139.345H229.085V143.42H225.01V139.345Z" fill="black"/>
<path d="M225.01 155.645H229.085V159.721H225.01V155.645Z" fill="black"/>
<path d="M225.01 159.721H229.085V163.796H225.01V159.721Z" fill="black"/>
<path d="M225.01 163.796H229.085V167.872H225.01V163.796Z" fill="black"/>
<path d="M225.01 171.947H229.085V176.022H225.01V171.947Z" fill="black"/>
<path d="M225.01 180.097H229.085V184.172H225.01V180.097Z" fill="black"/>
<path d="M225.01 184.172H229.085V188.248H225.01V184.172Z" fill="black"/>
<path d="M225.01 188.248H229.085V192.323H225.01V188.248Z" fill="black"/>
<path d="M225.01 204.549H229.085V208.624H225.01V204.549Z" fill="black"/>
<path d="M225.01 220.85H229.085V224.925H225.01V220.85Z" fill="black"/>
<g clip-path="url(#clip0_207_1737)">
<path d="M178.688 291.131V302.377H174.699V294.488H170.859V302.377H166.87V291.13H178.688V291.131Z" fill="white"/>
<path fill-rule="evenodd" clip-rule="evenodd" d="M158.678 302.779C162.249 302.779 164.9 300.575 164.9 297.233C164.9 293.999 162.944 291.899 159.675 291.899C158.166 291.899 156.921 292.434 155.983 293.357C156.207 291.45 157.808 290.057 159.572 290.057C159.979 290.057 163.043 290.051 163.043 290.051L164.776 286.712C164.776 286.712 160.929 286.801 159.141 286.801C155.054 286.872 152.294 290.612 152.294 295.153C152.294 300.445 154.986 302.779 158.678 302.779ZM158.7 294.856C160.026 294.856 160.945 295.733 160.945 297.233C160.945 298.583 160.128 299.695 158.7 299.698C157.334 299.698 156.415 298.667 156.415 297.256C156.415 295.756 157.334 294.856 158.7 294.856Z" fill="white"/>
<path d="M149.048 298.612C149.048 298.612 148.106 299.159 146.699 299.262C145.081 299.31 143.64 298.282 143.64 296.455C143.64 294.672 144.912 293.65 146.658 293.65C147.729 293.65 149.145 294.398 149.145 294.398C149.145 294.398 150.182 292.483 150.718 291.525C149.735 290.775 148.426 290.364 146.903 290.364C143.059 290.364 140.082 292.887 140.082 296.432C140.082 300.022 142.88 302.487 146.903 302.412C148.027 302.37 149.578 301.973 150.524 301.361L149.048 298.612Z" fill="white"/>
<path d="M100 288.013L105.533 297.97V304.043L100.006 313.981L100 288.013Z" fill="#5B57A2"/>
<path d="M121.245 294.346L126.43 291.147L137.04 291.137L121.245 300.879V294.346Z" fill="#D90751"/>
<path d="M121.216 287.954L121.245 301.137L115.699 297.706V278L121.216 287.954Z" fill="#FAB718"/>
<path d="M137.04 291.137L126.429 291.147L121.216 287.954L115.699 278L137.04 291.137Z" fill="#ED6F26"/>
<path d="M121.245 314.036V307.64L115.699 304.274L115.702 324L121.245 314.036Z" fill="#63B22F"/>
<path d="M126.417 310.866L105.533 297.97L100 288.013L137.018 310.853L126.417 310.866Z" fill="#1487C9"/>
<path d="M115.702 324L121.245 314.036L126.416 310.866L137.018 310.853L115.702 324Z" fill="#017F36"/>
<path d="M100.006 313.981L115.744 304.275L110.453 301.006L105.533 304.043L100.006 313.981Z" fill="#984995"/>
<path d="M143.641 309.946C143.52 310.102 143.359 310.22 143.167 310.3C142.97 310.381 142.759 310.422 142.546 310.421C142.334 310.424 142.123 310.388 141.924 310.316C141.745 310.251 141.581 310.148 141.443 310.016C141.307 309.884 141.2 309.724 141.13 309.547C141.053 309.353 141.015 309.146 141.017 308.938C141.017 308.731 141.053 308.539 141.126 308.358C141.197 308.175 141.299 308.019 141.427 307.888C141.556 307.755 141.709 307.653 141.882 307.573C142.059 307.496 142.251 307.455 142.462 307.455C142.69 307.455 142.901 307.484 143.093 307.541C143.286 307.598 143.449 307.694 143.584 307.828L143.35 308.227C143.237 308.124 143.104 308.045 142.959 307.997C142.821 307.952 142.677 307.93 142.533 307.93C142.405 307.93 142.283 307.955 142.164 308.003C142.048 308.051 141.941 308.12 141.85 308.208C141.758 308.298 141.684 308.406 141.636 308.527C141.581 308.651 141.556 308.788 141.556 308.941C141.556 309.097 141.584 309.238 141.639 309.359C141.693 309.483 141.767 309.589 141.86 309.678C141.953 309.767 142.062 309.834 142.187 309.879C142.312 309.927 142.443 309.949 142.584 309.949C142.757 309.949 142.914 309.914 143.049 309.847C143.182 309.782 143.301 309.692 143.401 309.582L143.641 309.946ZM144.301 310.354V307.515H144.808V309.63L146.454 307.515H146.961V310.354H146.454V308.239L144.808 310.354L144.301 310.354ZM150.315 309.946C150.191 310.103 150.027 310.225 149.841 310.3C149.644 310.381 149.433 310.422 149.219 310.421C149.008 310.424 148.797 310.388 148.598 310.316C148.419 310.251 148.255 310.148 148.117 310.016C147.981 309.884 147.874 309.724 147.803 309.547C147.727 309.353 147.689 309.146 147.691 308.938C147.691 308.731 147.727 308.539 147.8 308.358C147.871 308.175 147.973 308.019 148.101 307.888C148.229 307.755 148.383 307.653 148.556 307.573C148.739 307.492 148.937 307.452 149.136 307.455C149.364 307.455 149.575 307.484 149.767 307.541C149.96 307.598 150.123 307.694 150.258 307.828L150.024 308.227C149.911 308.124 149.778 308.045 149.633 307.997C149.495 307.952 149.351 307.93 149.207 307.93C148.952 307.931 148.708 308.03 148.524 308.208C148.432 308.298 148.359 308.407 148.309 308.527C148.255 308.651 148.229 308.788 148.229 308.941C148.229 309.097 148.258 309.238 148.313 309.359C148.367 309.483 148.441 309.589 148.534 309.678C148.627 309.767 148.736 309.834 148.861 309.879C148.986 309.923 149.117 309.949 149.258 309.949C149.431 309.949 149.585 309.914 149.722 309.847C149.856 309.782 149.975 309.692 150.075 309.582L150.315 309.946ZM150.575 307.515H153.173V308.019H152.129V310.354H151.622V308.019H150.578V307.515H150.575Z" fill="white"/>
<path fill-rule="evenodd" clip-rule="evenodd" d="M155.538 310.326C155.73 310.265 155.894 310.172 156.035 310.045L155.881 309.649C155.788 309.733 155.663 309.803 155.513 309.86C155.362 309.918 155.192 309.946 155.006 309.946C154.727 309.946 154.497 309.873 154.314 309.723C154.132 309.573 154.032 309.363 154.01 309.094H156.201C156.224 308.995 156.233 308.884 156.233 308.753C156.233 308.558 156.198 308.383 156.127 308.224C156.062 308.069 155.966 307.929 155.846 307.812C155.724 307.696 155.58 307.606 155.423 307.548C155.258 307.483 155.083 307.451 154.907 307.452C154.67 307.452 154.461 307.493 154.279 307.57C154.106 307.643 153.951 307.75 153.82 307.886C153.694 308.02 153.597 308.18 153.536 308.354C153.468 308.54 153.434 308.737 153.436 308.935C153.436 309.158 153.475 309.362 153.545 309.544C153.614 309.721 153.719 309.88 153.853 310.013C153.984 310.143 154.144 310.243 154.333 310.313C154.536 310.385 154.75 310.421 154.965 310.418C155.159 310.417 155.353 310.385 155.538 310.326ZM154.256 308.141C154.413 307.997 154.622 307.927 154.884 307.927C155.131 307.927 155.33 307.994 155.474 308.128C155.618 308.262 155.695 308.447 155.708 308.683H153.978C154.002 308.474 154.101 308.281 154.256 308.141Z" fill="white"/>
<path d="M156.922 307.516H157.384L158.479 308.922L159.517 307.516H159.966V310.355H159.46V308.285L158.473 309.602H158.453L157.428 308.284V310.354H156.922V307.516Z" fill="white"/>
<path fill-rule="evenodd" clip-rule="evenodd" d="M161.343 307.525C161.19 307.566 161.043 307.629 160.908 307.713L161.042 308.116C161.158 308.058 161.273 308.01 161.388 307.969C161.504 307.927 161.651 307.908 161.827 307.908C161.968 307.908 162.081 307.93 162.167 307.975C162.253 308.016 162.317 308.08 162.362 308.157C162.407 308.234 162.436 308.329 162.452 308.441C162.468 308.552 162.475 308.673 162.475 308.804C162.371 308.732 162.253 308.683 162.128 308.661C162.008 308.637 161.886 308.624 161.763 308.622C161.613 308.622 161.472 308.645 161.337 308.683C161.203 308.721 161.087 308.779 160.994 308.855C160.899 308.932 160.823 309.029 160.77 309.139C160.714 309.26 160.685 309.392 160.687 309.525C160.687 309.803 160.767 310.02 160.927 310.173C161.087 310.326 161.298 310.402 161.561 310.402C161.798 310.402 161.988 310.361 162.132 310.278C162.276 310.195 162.391 310.099 162.475 309.991V310.358H162.949V308.616C162.949 308.246 162.869 307.959 162.705 307.758C162.545 307.557 162.26 307.455 161.856 307.455C161.677 307.455 161.507 307.48 161.343 307.525ZM162.19 309.825C162.074 309.908 161.924 309.946 161.738 309.946C161.575 309.946 161.446 309.905 161.357 309.825C161.267 309.742 161.222 309.634 161.222 309.499C161.222 309.42 161.238 309.353 161.273 309.292C161.309 309.232 161.357 309.184 161.411 309.146C161.471 309.105 161.537 309.076 161.606 309.059C161.68 309.04 161.754 309.031 161.831 309.031C162.081 309.031 162.295 309.091 162.472 309.219V309.579C162.388 309.673 162.294 309.756 162.19 309.825ZM167.419 306.517C167.521 306.47 167.617 306.39 167.707 306.272L167.431 305.873C167.361 305.969 167.281 306.036 167.191 306.071C167.096 306.108 166.997 306.136 166.896 306.154L166.8 306.171C166.717 306.185 166.627 306.202 166.531 306.218C166.377 306.246 166.226 306.294 166.083 306.358C165.855 306.457 165.673 306.591 165.535 306.76C165.397 306.929 165.288 307.12 165.214 307.331C165.139 307.544 165.089 307.766 165.064 307.991C165.038 308.221 165.025 308.441 165.025 308.651C165.025 308.922 165.06 309.168 165.131 309.388C165.202 309.608 165.301 309.793 165.432 309.943C165.563 310.096 165.721 310.211 165.906 310.294C166.092 310.377 166.3 310.418 166.534 310.418C166.749 310.418 166.948 310.377 167.127 310.3C167.3 310.226 167.457 310.119 167.588 309.985C167.716 309.854 167.819 309.697 167.89 309.522C167.963 309.346 167.999 309.158 167.999 308.96C167.999 308.747 167.967 308.553 167.906 308.38C167.85 308.216 167.76 308.065 167.643 307.937C167.526 307.811 167.382 307.713 167.223 307.649C167.048 307.58 166.86 307.545 166.672 307.547C166.55 307.547 166.432 307.564 166.316 307.595C166.204 307.627 166.096 307.673 165.996 307.733C165.898 307.789 165.809 307.859 165.73 307.94C165.653 308.02 165.589 308.109 165.544 308.211H165.531C165.541 308.08 165.557 307.946 165.586 307.809C165.615 307.672 165.656 307.541 165.711 307.417C165.765 307.293 165.836 307.181 165.922 307.079C166.015 306.976 166.129 306.894 166.255 306.839C166.395 306.773 166.543 306.724 166.694 306.696L166.795 306.678C166.895 306.659 166.991 306.642 167.082 306.622C167.204 306.597 167.316 306.565 167.419 306.517ZM165.637 309.244C165.588 309.083 165.564 308.915 165.567 308.747C165.588 308.65 165.627 308.558 165.682 308.476C165.737 308.39 165.807 308.313 165.89 308.246C166.079 308.097 166.311 308.018 166.55 308.02C166.848 308.02 167.073 308.112 167.229 308.294C167.387 308.479 167.464 308.709 167.464 308.986C167.464 309.123 167.438 309.248 167.393 309.363C167.35 309.476 167.284 309.579 167.201 309.666C167.117 309.753 167.017 309.822 166.906 309.87C166.791 309.921 166.666 309.946 166.525 309.946C166.384 309.946 166.255 309.918 166.137 309.86C166.019 309.804 165.915 309.722 165.832 309.621C165.746 309.508 165.679 309.381 165.637 309.244ZM171.882 307.516H171.375V310.355H171.882V307.516ZM168.729 307.516H169.235V308.367H169.703C169.924 308.367 170.103 308.396 170.248 308.45C170.392 308.505 170.507 308.578 170.594 308.667C170.68 308.756 170.741 308.862 170.777 308.98C170.812 309.098 170.831 309.219 170.831 309.346C170.831 309.474 170.812 309.596 170.77 309.717C170.732 309.838 170.664 309.943 170.574 310.039C170.485 310.135 170.363 310.211 170.209 310.269C170.055 310.326 169.87 310.358 169.645 310.358H168.726V307.516H168.729ZM169.235 308.842V309.882H169.604C169.857 309.882 170.036 309.838 170.139 309.748C170.242 309.659 170.293 309.532 170.293 309.363C170.293 309.19 170.238 309.06 170.136 308.97C170.03 308.881 169.854 308.836 169.61 308.836H169.235V308.842Z" fill="white"/>
<path d="M175.23 309.946C175.108 310.102 174.948 310.22 174.756 310.3C174.558 310.381 174.347 310.422 174.134 310.421C173.923 310.424 173.712 310.388 173.513 310.316C173.334 310.251 173.17 310.149 173.032 310.016C172.896 309.884 172.789 309.724 172.718 309.547C172.642 309.353 172.604 309.146 172.606 308.938C172.606 308.731 172.641 308.539 172.715 308.358C172.785 308.175 172.888 308.019 173.016 307.888C173.144 307.755 173.298 307.653 173.471 307.573C173.654 307.492 173.852 307.452 174.051 307.455C174.278 307.455 174.49 307.484 174.682 307.541C174.875 307.598 175.038 307.694 175.172 307.828L174.939 308.227C174.825 308.124 174.692 308.045 174.548 307.997C174.41 307.952 174.266 307.93 174.121 307.93C173.994 307.93 173.872 307.955 173.753 308.003C173.636 308.051 173.53 308.12 173.439 308.208C173.347 308.298 173.274 308.407 173.224 308.527C173.17 308.651 173.144 308.788 173.144 308.941C173.144 309.097 173.173 309.238 173.227 309.359C173.282 309.483 173.356 309.589 173.449 309.678C173.542 309.767 173.65 309.834 173.775 309.879C173.901 309.923 174.032 309.949 174.173 309.949C174.346 309.949 174.5 309.914 174.637 309.847C174.771 309.782 174.89 309.692 174.99 309.582L175.23 309.946ZM175.49 307.515H178.088V308.019H177.043V310.354H176.537V308.019H175.493V307.515H175.49Z" fill="white"/>
<path fill-rule="evenodd" clip-rule="evenodd" d="M179.146 307.516H178.639V311.618H179.146V310.224C179.248 310.291 179.37 310.339 179.511 310.371C179.652 310.402 179.799 310.418 179.95 310.418C180.174 310.418 180.376 310.377 180.558 310.3C180.734 310.225 180.893 310.116 181.026 309.978C181.157 309.841 181.257 309.681 181.327 309.493C181.398 309.305 181.433 309.104 181.433 308.891C181.433 308.68 181.401 308.485 181.34 308.31C181.283 308.143 181.194 307.989 181.077 307.857C180.964 307.728 180.822 307.627 180.664 307.56C180.491 307.486 180.304 307.449 180.116 307.452C179.918 307.452 179.732 307.49 179.556 307.567C179.379 307.644 179.241 307.736 179.146 307.851V307.516ZM179.498 308.042C179.642 307.966 179.799 307.927 179.969 307.927C180.116 307.927 180.248 307.949 180.367 307.997C180.482 308.045 180.578 308.112 180.658 308.202C180.738 308.291 180.799 308.393 180.838 308.514C180.879 308.635 180.898 308.766 180.898 308.91C180.898 309.063 180.873 309.2 180.828 309.328C180.786 309.449 180.719 309.559 180.632 309.653C180.545 309.745 180.439 309.818 180.322 309.866C180.191 309.922 180.05 309.949 179.908 309.946C179.771 309.946 179.642 309.93 179.521 309.899C179.387 309.862 179.261 309.804 179.146 309.726V308.319C179.235 308.211 179.354 308.119 179.498 308.042ZM185.316 307.515H184.81V310.354H185.316V307.515ZM182.16 307.515H182.667V308.367H183.134C183.355 308.367 183.535 308.396 183.679 308.45C183.823 308.504 183.939 308.578 184.025 308.667C184.112 308.756 184.173 308.862 184.208 308.979C184.243 309.098 184.262 309.219 184.262 309.346C184.262 309.474 184.243 309.595 184.202 309.717C184.163 309.838 184.096 309.943 184.006 310.039C183.916 310.134 183.794 310.211 183.641 310.269C183.487 310.326 183.301 310.358 183.077 310.358H182.157V307.515H182.16ZM182.67 308.842V309.882H183.039C183.292 309.882 183.471 309.838 183.574 309.748C183.676 309.659 183.727 309.531 183.727 309.362C183.727 309.19 183.673 309.06 183.571 308.97C183.465 308.881 183.288 308.836 183.045 308.836H182.67V308.842Z" fill="white"/>
<path d="M187.745 308.884L188.828 310.355H188.207L187.37 309.206L186.521 310.355H185.932L187.008 308.909L185.996 307.516H186.617L187.39 308.587L188.174 307.516H188.764L187.745 308.884ZM143.267 313.863H141.713V316.23H141.206V313.391H143.773V316.23H143.267V313.863ZM146.647 313.895H145.647L145.615 314.373C145.58 314.779 145.532 315.104 145.464 315.352C145.397 315.602 145.314 315.793 145.218 315.927C145.122 316.061 145.009 316.153 144.881 316.198C144.749 316.246 144.609 316.27 144.468 316.268L144.43 315.777C144.484 315.78 144.548 315.767 144.618 315.735C144.689 315.704 144.76 315.633 144.827 315.528C144.894 315.42 144.955 315.267 145.009 315.069C145.064 314.868 145.099 314.607 145.118 314.278L145.17 313.394H147.153V316.233H146.647V313.895Z" fill="white"/>
<path fill-rule="evenodd" clip-rule="evenodd" d="M148.518 313.397C148.354 313.442 148.207 313.505 148.082 313.585L148.217 313.987C148.332 313.93 148.448 313.882 148.563 313.84C148.678 313.799 148.826 313.78 149.002 313.78C149.143 313.78 149.255 313.802 149.341 313.847C149.428 313.888 149.492 313.952 149.537 314.029C149.582 314.105 149.61 314.201 149.626 314.312C149.642 314.424 149.649 314.545 149.649 314.676C149.545 314.604 149.427 314.555 149.303 314.533C149.183 314.509 149.06 314.496 148.938 314.494C148.787 314.494 148.646 314.517 148.512 314.555C148.377 314.593 148.261 314.651 148.169 314.727C148.074 314.804 147.997 314.901 147.944 315.011C147.888 315.132 147.86 315.264 147.861 315.397C147.861 315.674 147.941 315.892 148.102 316.045C148.261 316.198 148.473 316.274 148.736 316.274C148.973 316.274 149.162 316.233 149.306 316.15C149.45 316.067 149.566 315.971 149.649 315.863V316.229H150.123V314.488C150.123 314.118 150.043 313.831 149.88 313.63C149.719 313.429 149.434 313.327 149.031 313.327C148.857 313.327 148.685 313.351 148.518 313.397ZM149.367 315.697C149.252 315.78 149.101 315.818 148.916 315.818C148.749 315.818 148.624 315.777 148.534 315.697C148.445 315.614 148.4 315.505 148.4 315.371C148.4 315.292 148.416 315.225 148.451 315.164C148.486 315.104 148.534 315.056 148.589 315.017C148.643 314.979 148.71 314.95 148.784 314.931C148.857 314.912 148.933 314.902 149.008 314.903C149.258 314.903 149.473 314.963 149.649 315.09V315.451C149.566 315.545 149.471 315.627 149.367 315.697Z" fill="white"/>
<path d="M150.619 313.391H153.218V313.895H152.173V316.23H151.667V313.895H150.623V313.391H150.619Z" fill="white"/>
<path fill-rule="evenodd" clip-rule="evenodd" d="M155.583 316.201C155.775 316.141 155.939 316.048 156.079 315.92L155.926 315.525C155.833 315.608 155.708 315.678 155.557 315.736C155.407 315.793 155.237 315.822 155.051 315.822C154.772 315.822 154.542 315.748 154.359 315.598C154.176 315.449 154.077 315.238 154.055 314.97H156.246C156.268 314.871 156.278 314.759 156.278 314.629C156.278 314.434 156.243 314.259 156.172 314.099C156.107 313.944 156.011 313.805 155.89 313.688C155.768 313.572 155.625 313.482 155.468 313.423C155.303 313.359 155.128 313.326 154.952 313.327C154.714 313.327 154.506 313.369 154.324 313.445C154.151 313.518 153.995 313.626 153.865 313.761C153.739 313.896 153.642 314.056 153.58 314.23C153.513 314.416 153.479 314.612 153.481 314.81C153.481 315.034 153.519 315.238 153.59 315.42C153.661 315.602 153.766 315.758 153.897 315.889C154.029 316.019 154.189 316.118 154.378 316.188C154.581 316.261 154.794 316.297 155.009 316.294C155.198 316.294 155.391 316.262 155.583 316.201ZM154.298 314.013C154.455 313.87 154.663 313.799 154.926 313.799C155.176 313.799 155.372 313.87 155.516 314C155.66 314.135 155.737 314.319 155.75 314.555H154.02C154.044 314.347 154.143 314.154 154.298 314.013ZM156.525 313.391H157.166L158.143 314.76L157.098 316.23H156.477L157.572 314.759L156.525 313.391ZM158.268 313.391H158.774V316.23H158.268V313.391ZM160.584 316.23L159.469 314.759L160.511 313.391H159.882L158.899 314.759L159.956 316.23H160.584ZM162.898 316.201C163.09 316.141 163.253 316.048 163.394 315.92L163.24 315.525C163.147 315.608 163.023 315.678 162.872 315.736C162.721 315.793 162.552 315.822 162.366 315.822C162.087 315.822 161.856 315.748 161.674 315.598C161.491 315.449 161.392 315.238 161.369 314.97H163.561C163.583 314.871 163.593 314.759 163.593 314.629C163.593 314.434 163.558 314.259 163.487 314.099C163.421 313.945 163.326 313.805 163.205 313.688C163.083 313.572 162.939 313.482 162.782 313.423C162.618 313.359 162.443 313.326 162.266 313.327C162.03 313.327 161.821 313.369 161.638 313.445C161.466 313.518 161.31 313.626 161.18 313.761C161.054 313.896 160.957 314.055 160.895 314.23C160.828 314.416 160.794 314.612 160.796 314.81C160.796 315.034 160.834 315.238 160.905 315.42C160.975 315.602 161.081 315.758 161.212 315.889C161.344 316.019 161.504 316.118 161.693 316.188C161.896 316.261 162.109 316.297 162.324 316.294C162.519 316.292 162.712 316.261 162.898 316.201ZM161.613 314.013C161.77 313.87 161.978 313.799 162.241 313.799C162.488 313.799 162.686 313.87 162.831 314C162.975 314.135 163.052 314.319 163.064 314.555H161.334C161.359 314.347 161.458 314.154 161.613 314.013ZM165.647 312.438C165.349 312.438 165.186 312.272 165.16 311.94H164.683C164.683 312.067 164.705 312.182 164.747 312.291C164.788 312.399 164.849 312.492 164.929 312.568C165.009 312.645 165.112 312.705 165.231 312.753C165.349 312.801 165.487 312.823 165.644 312.823C165.788 312.823 165.916 312.801 166.032 312.753C166.147 312.709 166.243 312.645 166.326 312.568C166.406 312.492 166.471 312.399 166.515 312.291C166.56 312.182 166.583 312.067 166.583 311.94H166.109C166.086 312.272 165.929 312.438 165.647 312.438ZM164.279 313.391V316.23H164.785L166.432 314.115V316.23H166.938V313.391H166.432L164.785 315.506V313.391H164.279Z" fill="white"/>
</g>
<defs>
<clipPath id="clip0_207_1737">
<rect width="91" height="46" fill="white" transform="translate(100 278)"/>
</clipPath>
</defs>
</svg>
